%TF.GenerationSoftware,KiCad,Pcbnew,(5.1.7)-1*%
%TF.CreationDate,2021-08-01T21:01:40-07:00*%
%TF.ProjectId,I2SHat,49325348-6174-42e6-9b69-6361645f7063,rev?*%
%TF.SameCoordinates,Original*%
%TF.FileFunction,Soldermask,Top*%
%TF.FilePolarity,Negative*%
%FSLAX46Y46*%
G04 Gerber Fmt 4.6, Leading zero omitted, Abs format (unit mm)*
G04 Created by KiCad (PCBNEW (5.1.7)-1) date 2021-08-01 21:01:40*
%MOMM*%
%LPD*%
G01*
G04 APERTURE LIST*
%ADD10O,2.000000X3.500000*%
%ADD11O,3.500000X2.300000*%
%ADD12R,2.819400X1.346200*%
%ADD13R,1.016000X0.914400*%
%ADD14R,1.700000X2.100000*%
%ADD15C,2.000000*%
%ADD16R,1.000000X1.000000*%
%ADD17O,1.600000X1.600000*%
%ADD18R,1.600000X1.600000*%
%ADD19C,3.300000*%
%ADD20C,1.300000*%
%ADD21O,1.700000X1.700000*%
%ADD22R,1.700000X1.700000*%
%ADD23C,5.400000*%
%ADD24C,1.500000*%
%ADD25C,1.524000*%
%ADD26R,1.524000X1.524000*%
G04 APERTURE END LIST*
D10*
%TO.C,J5*%
X111506000Y-87321000D03*
D11*
X111506000Y-91821000D03*
%TD*%
D10*
%TO.C,J3*%
X85852000Y-87321000D03*
D11*
X85852000Y-91821000D03*
%TD*%
D12*
%TO.C,D1*%
X100749100Y-65684400D03*
D13*
X103251000Y-65684400D03*
%TD*%
%TO.C,R31*%
G36*
G01*
X78086000Y-81541199D02*
X78086000Y-82441201D01*
G75*
G02*
X77836001Y-82691200I-249999J0D01*
G01*
X77135999Y-82691200D01*
G75*
G02*
X76886000Y-82441201I0J249999D01*
G01*
X76886000Y-81541199D01*
G75*
G02*
X77135999Y-81291200I249999J0D01*
G01*
X77836001Y-81291200D01*
G75*
G02*
X78086000Y-81541199I0J-249999D01*
G01*
G37*
G36*
G01*
X80086000Y-81541199D02*
X80086000Y-82441201D01*
G75*
G02*
X79836001Y-82691200I-249999J0D01*
G01*
X79135999Y-82691200D01*
G75*
G02*
X78886000Y-82441201I0J249999D01*
G01*
X78886000Y-81541199D01*
G75*
G02*
X79135999Y-81291200I249999J0D01*
G01*
X79836001Y-81291200D01*
G75*
G02*
X80086000Y-81541199I0J-249999D01*
G01*
G37*
%TD*%
D14*
%TO.C,Y1*%
X65198000Y-82553600D03*
X65198000Y-76653600D03*
X67898000Y-76653600D03*
X67898000Y-82553600D03*
%TD*%
D15*
%TO.C,TP7*%
X66065000Y-91136000D03*
%TD*%
%TO.C,TP6*%
X80035000Y-91136000D03*
%TD*%
%TO.C,TP5*%
X91719000Y-91136000D03*
%TD*%
%TO.C,TP4*%
X105689000Y-91136000D03*
%TD*%
D16*
%TO.C,TP8*%
X73456800Y-84277200D03*
%TD*%
D17*
%TO.C,A1*%
X71818500Y-68262500D03*
X71818500Y-53022500D03*
X107378500Y-68262500D03*
X74358500Y-53022500D03*
X104838500Y-68262500D03*
X76898500Y-53022500D03*
X102298500Y-68262500D03*
X79438500Y-53022500D03*
X99758500Y-68262500D03*
X81978500Y-53022500D03*
X97218500Y-68262500D03*
X84518500Y-53022500D03*
X94678500Y-68262500D03*
X87058500Y-53022500D03*
X92138500Y-68262500D03*
X89598500Y-53022500D03*
X89598500Y-68262500D03*
X92138500Y-53022500D03*
X87058500Y-68262500D03*
X94678500Y-53022500D03*
X84518500Y-68262500D03*
X97218500Y-53022500D03*
X81978500Y-68262500D03*
X99758500Y-53022500D03*
X79438500Y-68262500D03*
X102298500Y-53022500D03*
X76898500Y-68262500D03*
X104838500Y-53022500D03*
X74358500Y-68262500D03*
D18*
X107378500Y-53022500D03*
%TD*%
%TO.C,U8*%
G36*
G01*
X77055500Y-55195000D02*
X78105500Y-55195000D01*
G75*
G02*
X78175500Y-55265000I0J-70000D01*
G01*
X78175500Y-55865000D01*
G75*
G02*
X78105500Y-55935000I-70000J0D01*
G01*
X77055500Y-55935000D01*
G75*
G02*
X76985500Y-55865000I0J70000D01*
G01*
X76985500Y-55265000D01*
G75*
G02*
X77055500Y-55195000I70000J0D01*
G01*
G37*
G36*
G01*
X77055500Y-56145000D02*
X78105500Y-56145000D01*
G75*
G02*
X78175500Y-56215000I0J-70000D01*
G01*
X78175500Y-56815000D01*
G75*
G02*
X78105500Y-56885000I-70000J0D01*
G01*
X77055500Y-56885000D01*
G75*
G02*
X76985500Y-56815000I0J70000D01*
G01*
X76985500Y-56215000D01*
G75*
G02*
X77055500Y-56145000I70000J0D01*
G01*
G37*
G36*
G01*
X77055500Y-57095000D02*
X78105500Y-57095000D01*
G75*
G02*
X78175500Y-57165000I0J-70000D01*
G01*
X78175500Y-57765000D01*
G75*
G02*
X78105500Y-57835000I-70000J0D01*
G01*
X77055500Y-57835000D01*
G75*
G02*
X76985500Y-57765000I0J70000D01*
G01*
X76985500Y-57165000D01*
G75*
G02*
X77055500Y-57095000I70000J0D01*
G01*
G37*
G36*
G01*
X79755500Y-57095000D02*
X80805500Y-57095000D01*
G75*
G02*
X80875500Y-57165000I0J-70000D01*
G01*
X80875500Y-57765000D01*
G75*
G02*
X80805500Y-57835000I-70000J0D01*
G01*
X79755500Y-57835000D01*
G75*
G02*
X79685500Y-57765000I0J70000D01*
G01*
X79685500Y-57165000D01*
G75*
G02*
X79755500Y-57095000I70000J0D01*
G01*
G37*
G36*
G01*
X79755500Y-55195000D02*
X80805500Y-55195000D01*
G75*
G02*
X80875500Y-55265000I0J-70000D01*
G01*
X80875500Y-55865000D01*
G75*
G02*
X80805500Y-55935000I-70000J0D01*
G01*
X79755500Y-55935000D01*
G75*
G02*
X79685500Y-55865000I0J70000D01*
G01*
X79685500Y-55265000D01*
G75*
G02*
X79755500Y-55195000I70000J0D01*
G01*
G37*
%TD*%
%TO.C,C9*%
G36*
G01*
X112130000Y-79613997D02*
X112130000Y-80914003D01*
G75*
G02*
X111880003Y-81164000I-249997J0D01*
G01*
X111054997Y-81164000D01*
G75*
G02*
X110805000Y-80914003I0J249997D01*
G01*
X110805000Y-79613997D01*
G75*
G02*
X111054997Y-79364000I249997J0D01*
G01*
X111880003Y-79364000D01*
G75*
G02*
X112130000Y-79613997I0J-249997D01*
G01*
G37*
G36*
G01*
X115255000Y-79613997D02*
X115255000Y-80914003D01*
G75*
G02*
X115005003Y-81164000I-249997J0D01*
G01*
X114179997Y-81164000D01*
G75*
G02*
X113930000Y-80914003I0J249997D01*
G01*
X113930000Y-79613997D01*
G75*
G02*
X114179997Y-79364000I249997J0D01*
G01*
X115005003Y-79364000D01*
G75*
G02*
X115255000Y-79613997I0J-249997D01*
G01*
G37*
%TD*%
%TO.C,C19*%
G36*
G01*
X116765100Y-50072200D02*
X116765100Y-51172200D01*
G75*
G02*
X116515100Y-51422200I-250000J0D01*
G01*
X113690100Y-51422200D01*
G75*
G02*
X113440100Y-51172200I0J250000D01*
G01*
X113440100Y-50072200D01*
G75*
G02*
X113690100Y-49822200I250000J0D01*
G01*
X116515100Y-49822200D01*
G75*
G02*
X116765100Y-50072200I0J-250000D01*
G01*
G37*
G36*
G01*
X121840100Y-50072200D02*
X121840100Y-51172200D01*
G75*
G02*
X121590100Y-51422200I-250000J0D01*
G01*
X118765100Y-51422200D01*
G75*
G02*
X118515100Y-51172200I0J250000D01*
G01*
X118515100Y-50072200D01*
G75*
G02*
X118765100Y-49822200I250000J0D01*
G01*
X121590100Y-49822200D01*
G75*
G02*
X121840100Y-50072200I0J-250000D01*
G01*
G37*
%TD*%
%TO.C,C23*%
G36*
G01*
X117806500Y-72551200D02*
X117806500Y-73651200D01*
G75*
G02*
X117556500Y-73901200I-250000J0D01*
G01*
X114731500Y-73901200D01*
G75*
G02*
X114481500Y-73651200I0J250000D01*
G01*
X114481500Y-72551200D01*
G75*
G02*
X114731500Y-72301200I250000J0D01*
G01*
X117556500Y-72301200D01*
G75*
G02*
X117806500Y-72551200I0J-250000D01*
G01*
G37*
G36*
G01*
X122881500Y-72551200D02*
X122881500Y-73651200D01*
G75*
G02*
X122631500Y-73901200I-250000J0D01*
G01*
X119806500Y-73901200D01*
G75*
G02*
X119556500Y-73651200I0J250000D01*
G01*
X119556500Y-72551200D01*
G75*
G02*
X119806500Y-72301200I250000J0D01*
G01*
X122631500Y-72301200D01*
G75*
G02*
X122881500Y-72551200I0J-250000D01*
G01*
G37*
%TD*%
%TO.C,C25*%
G36*
G01*
X117806500Y-65096300D02*
X117806500Y-66196300D01*
G75*
G02*
X117556500Y-66446300I-250000J0D01*
G01*
X114731500Y-66446300D01*
G75*
G02*
X114481500Y-66196300I0J250000D01*
G01*
X114481500Y-65096300D01*
G75*
G02*
X114731500Y-64846300I250000J0D01*
G01*
X117556500Y-64846300D01*
G75*
G02*
X117806500Y-65096300I0J-250000D01*
G01*
G37*
G36*
G01*
X122881500Y-65096300D02*
X122881500Y-66196300D01*
G75*
G02*
X122631500Y-66446300I-250000J0D01*
G01*
X119806500Y-66446300D01*
G75*
G02*
X119556500Y-66196300I0J250000D01*
G01*
X119556500Y-65096300D01*
G75*
G02*
X119806500Y-64846300I250000J0D01*
G01*
X122631500Y-64846300D01*
G75*
G02*
X122881500Y-65096300I0J-250000D01*
G01*
G37*
%TD*%
%TO.C,C21*%
G36*
G01*
X117704900Y-57539800D02*
X117704900Y-58639800D01*
G75*
G02*
X117454900Y-58889800I-250000J0D01*
G01*
X114629900Y-58889800D01*
G75*
G02*
X114379900Y-58639800I0J250000D01*
G01*
X114379900Y-57539800D01*
G75*
G02*
X114629900Y-57289800I250000J0D01*
G01*
X117454900Y-57289800D01*
G75*
G02*
X117704900Y-57539800I0J-250000D01*
G01*
G37*
G36*
G01*
X122779900Y-57539800D02*
X122779900Y-58639800D01*
G75*
G02*
X122529900Y-58889800I-250000J0D01*
G01*
X119704900Y-58889800D01*
G75*
G02*
X119454900Y-58639800I0J250000D01*
G01*
X119454900Y-57539800D01*
G75*
G02*
X119704900Y-57289800I250000J0D01*
G01*
X122529900Y-57289800D01*
G75*
G02*
X122779900Y-57539800I0J-250000D01*
G01*
G37*
%TD*%
%TO.C,C13*%
G36*
G01*
X72820100Y-80266303D02*
X72820100Y-78966297D01*
G75*
G02*
X73070097Y-78716300I249997J0D01*
G01*
X73895103Y-78716300D01*
G75*
G02*
X74145100Y-78966297I0J-249997D01*
G01*
X74145100Y-80266303D01*
G75*
G02*
X73895103Y-80516300I-249997J0D01*
G01*
X73070097Y-80516300D01*
G75*
G02*
X72820100Y-80266303I0J249997D01*
G01*
G37*
G36*
G01*
X69695100Y-80266303D02*
X69695100Y-78966297D01*
G75*
G02*
X69945097Y-78716300I249997J0D01*
G01*
X70770103Y-78716300D01*
G75*
G02*
X71020100Y-78966297I0J-249997D01*
G01*
X71020100Y-80266303D01*
G75*
G02*
X70770103Y-80516300I-249997J0D01*
G01*
X69945097Y-80516300D01*
G75*
G02*
X69695100Y-80266303I0J249997D01*
G01*
G37*
%TD*%
%TO.C,C14*%
G36*
G01*
X72820100Y-82628503D02*
X72820100Y-81328497D01*
G75*
G02*
X73070097Y-81078500I249997J0D01*
G01*
X73895103Y-81078500D01*
G75*
G02*
X74145100Y-81328497I0J-249997D01*
G01*
X74145100Y-82628503D01*
G75*
G02*
X73895103Y-82878500I-249997J0D01*
G01*
X73070097Y-82878500D01*
G75*
G02*
X72820100Y-82628503I0J249997D01*
G01*
G37*
G36*
G01*
X69695100Y-82628503D02*
X69695100Y-81328497D01*
G75*
G02*
X69945097Y-81078500I249997J0D01*
G01*
X70770103Y-81078500D01*
G75*
G02*
X71020100Y-81328497I0J-249997D01*
G01*
X71020100Y-82628503D01*
G75*
G02*
X70770103Y-82878500I-249997J0D01*
G01*
X69945097Y-82878500D01*
G75*
G02*
X69695100Y-82628503I0J249997D01*
G01*
G37*
%TD*%
%TO.C,C15*%
G36*
G01*
X62678300Y-82443200D02*
X63153300Y-82443200D01*
G75*
G02*
X63390800Y-82680700I0J-237500D01*
G01*
X63390800Y-83280700D01*
G75*
G02*
X63153300Y-83518200I-237500J0D01*
G01*
X62678300Y-83518200D01*
G75*
G02*
X62440800Y-83280700I0J237500D01*
G01*
X62440800Y-82680700D01*
G75*
G02*
X62678300Y-82443200I237500J0D01*
G01*
G37*
G36*
G01*
X62678300Y-80718200D02*
X63153300Y-80718200D01*
G75*
G02*
X63390800Y-80955700I0J-237500D01*
G01*
X63390800Y-81555700D01*
G75*
G02*
X63153300Y-81793200I-237500J0D01*
G01*
X62678300Y-81793200D01*
G75*
G02*
X62440800Y-81555700I0J237500D01*
G01*
X62440800Y-80955700D01*
G75*
G02*
X62678300Y-80718200I237500J0D01*
G01*
G37*
%TD*%
%TO.C,C16*%
G36*
G01*
X63153300Y-78364200D02*
X62678300Y-78364200D01*
G75*
G02*
X62440800Y-78126700I0J237500D01*
G01*
X62440800Y-77526700D01*
G75*
G02*
X62678300Y-77289200I237500J0D01*
G01*
X63153300Y-77289200D01*
G75*
G02*
X63390800Y-77526700I0J-237500D01*
G01*
X63390800Y-78126700D01*
G75*
G02*
X63153300Y-78364200I-237500J0D01*
G01*
G37*
G36*
G01*
X63153300Y-80089200D02*
X62678300Y-80089200D01*
G75*
G02*
X62440800Y-79851700I0J237500D01*
G01*
X62440800Y-79251700D01*
G75*
G02*
X62678300Y-79014200I237500J0D01*
G01*
X63153300Y-79014200D01*
G75*
G02*
X63390800Y-79251700I0J-237500D01*
G01*
X63390800Y-79851700D01*
G75*
G02*
X63153300Y-80089200I-237500J0D01*
G01*
G37*
%TD*%
%TO.C,C11*%
G36*
G01*
X71020100Y-76604097D02*
X71020100Y-77904103D01*
G75*
G02*
X70770103Y-78154100I-249997J0D01*
G01*
X69945097Y-78154100D01*
G75*
G02*
X69695100Y-77904103I0J249997D01*
G01*
X69695100Y-76604097D01*
G75*
G02*
X69945097Y-76354100I249997J0D01*
G01*
X70770103Y-76354100D01*
G75*
G02*
X71020100Y-76604097I0J-249997D01*
G01*
G37*
G36*
G01*
X74145100Y-76604097D02*
X74145100Y-77904103D01*
G75*
G02*
X73895103Y-78154100I-249997J0D01*
G01*
X73070097Y-78154100D01*
G75*
G02*
X72820100Y-77904103I0J249997D01*
G01*
X72820100Y-76604097D01*
G75*
G02*
X73070097Y-76354100I249997J0D01*
G01*
X73895103Y-76354100D01*
G75*
G02*
X74145100Y-76604097I0J-249997D01*
G01*
G37*
%TD*%
%TO.C,C8*%
G36*
G01*
X111241000Y-82026997D02*
X111241000Y-83327003D01*
G75*
G02*
X110991003Y-83577000I-249997J0D01*
G01*
X110165997Y-83577000D01*
G75*
G02*
X109916000Y-83327003I0J249997D01*
G01*
X109916000Y-82026997D01*
G75*
G02*
X110165997Y-81777000I249997J0D01*
G01*
X110991003Y-81777000D01*
G75*
G02*
X111241000Y-82026997I0J-249997D01*
G01*
G37*
G36*
G01*
X114366000Y-82026997D02*
X114366000Y-83327003D01*
G75*
G02*
X114116003Y-83577000I-249997J0D01*
G01*
X113290997Y-83577000D01*
G75*
G02*
X113041000Y-83327003I0J249997D01*
G01*
X113041000Y-82026997D01*
G75*
G02*
X113290997Y-81777000I249997J0D01*
G01*
X114116003Y-81777000D01*
G75*
G02*
X114366000Y-82026997I0J-249997D01*
G01*
G37*
%TD*%
%TO.C,C10*%
G36*
G01*
X108342000Y-80787003D02*
X108342000Y-79486997D01*
G75*
G02*
X108591997Y-79237000I249997J0D01*
G01*
X109417003Y-79237000D01*
G75*
G02*
X109667000Y-79486997I0J-249997D01*
G01*
X109667000Y-80787003D01*
G75*
G02*
X109417003Y-81037000I-249997J0D01*
G01*
X108591997Y-81037000D01*
G75*
G02*
X108342000Y-80787003I0J249997D01*
G01*
G37*
G36*
G01*
X105217000Y-80787003D02*
X105217000Y-79486997D01*
G75*
G02*
X105466997Y-79237000I249997J0D01*
G01*
X106292003Y-79237000D01*
G75*
G02*
X106542000Y-79486997I0J-249997D01*
G01*
X106542000Y-80787003D01*
G75*
G02*
X106292003Y-81037000I-249997J0D01*
G01*
X105466997Y-81037000D01*
G75*
G02*
X105217000Y-80787003I0J249997D01*
G01*
G37*
%TD*%
D19*
%TO.C,J1*%
X94869000Y-91160600D03*
X102489000Y-91160600D03*
D20*
X96139000Y-87350600D03*
X98679000Y-87350600D03*
X101219000Y-87350600D03*
%TD*%
D21*
%TO.C,J4*%
X115049300Y-42103040D03*
X115049300Y-44643040D03*
X112509300Y-42103040D03*
X112509300Y-44643040D03*
X109969300Y-42103040D03*
X109969300Y-44643040D03*
X107429300Y-42103040D03*
X107429300Y-44643040D03*
X104889300Y-42103040D03*
X104889300Y-44643040D03*
X102349300Y-42103040D03*
X102349300Y-44643040D03*
X99809300Y-42103040D03*
X99809300Y-44643040D03*
X97269300Y-42103040D03*
X97269300Y-44643040D03*
X94729300Y-42103040D03*
X94729300Y-44643040D03*
X92189300Y-42103040D03*
X92189300Y-44643040D03*
X89649300Y-42103040D03*
X89649300Y-44643040D03*
X87109300Y-42103040D03*
X87109300Y-44643040D03*
X84569300Y-42103040D03*
X84569300Y-44643040D03*
X82029300Y-42103040D03*
X82029300Y-44643040D03*
X79489300Y-42103040D03*
X79489300Y-44643040D03*
X76949300Y-42103040D03*
X76949300Y-44643040D03*
X74409300Y-42103040D03*
X74409300Y-44643040D03*
X71869300Y-42103040D03*
X71869300Y-44643040D03*
X69329300Y-42103040D03*
X69329300Y-44643040D03*
X66789300Y-42103040D03*
D22*
X66789300Y-44643040D03*
%TD*%
%TO.C,R29*%
G36*
G01*
X76842199Y-49650600D02*
X77742201Y-49650600D01*
G75*
G02*
X77992200Y-49900599I0J-249999D01*
G01*
X77992200Y-50600601D01*
G75*
G02*
X77742201Y-50850600I-249999J0D01*
G01*
X76842199Y-50850600D01*
G75*
G02*
X76592200Y-50600601I0J249999D01*
G01*
X76592200Y-49900599D01*
G75*
G02*
X76842199Y-49650600I249999J0D01*
G01*
G37*
G36*
G01*
X76842199Y-47650600D02*
X77742201Y-47650600D01*
G75*
G02*
X77992200Y-47900599I0J-249999D01*
G01*
X77992200Y-48600601D01*
G75*
G02*
X77742201Y-48850600I-249999J0D01*
G01*
X76842199Y-48850600D01*
G75*
G02*
X76592200Y-48600601I0J249999D01*
G01*
X76592200Y-47900599D01*
G75*
G02*
X76842199Y-47650600I249999J0D01*
G01*
G37*
%TD*%
%TO.C,R32*%
G36*
G01*
X81604699Y-56864200D02*
X82504701Y-56864200D01*
G75*
G02*
X82754700Y-57114199I0J-249999D01*
G01*
X82754700Y-57814201D01*
G75*
G02*
X82504701Y-58064200I-249999J0D01*
G01*
X81604699Y-58064200D01*
G75*
G02*
X81354700Y-57814201I0J249999D01*
G01*
X81354700Y-57114199D01*
G75*
G02*
X81604699Y-56864200I249999J0D01*
G01*
G37*
G36*
G01*
X81604699Y-54864200D02*
X82504701Y-54864200D01*
G75*
G02*
X82754700Y-55114199I0J-249999D01*
G01*
X82754700Y-55814201D01*
G75*
G02*
X82504701Y-56064200I-249999J0D01*
G01*
X81604699Y-56064200D01*
G75*
G02*
X81354700Y-55814201I0J249999D01*
G01*
X81354700Y-55114199D01*
G75*
G02*
X81604699Y-54864200I249999J0D01*
G01*
G37*
%TD*%
%TO.C,U1*%
G36*
G01*
X96724000Y-83713800D02*
X96724000Y-82663800D01*
G75*
G02*
X96794000Y-82593800I70000J0D01*
G01*
X97394000Y-82593800D01*
G75*
G02*
X97464000Y-82663800I0J-70000D01*
G01*
X97464000Y-83713800D01*
G75*
G02*
X97394000Y-83783800I-70000J0D01*
G01*
X96794000Y-83783800D01*
G75*
G02*
X96724000Y-83713800I0J70000D01*
G01*
G37*
G36*
G01*
X97674000Y-83713800D02*
X97674000Y-82663800D01*
G75*
G02*
X97744000Y-82593800I70000J0D01*
G01*
X98344000Y-82593800D01*
G75*
G02*
X98414000Y-82663800I0J-70000D01*
G01*
X98414000Y-83713800D01*
G75*
G02*
X98344000Y-83783800I-70000J0D01*
G01*
X97744000Y-83783800D01*
G75*
G02*
X97674000Y-83713800I0J70000D01*
G01*
G37*
G36*
G01*
X98624000Y-83713800D02*
X98624000Y-82663800D01*
G75*
G02*
X98694000Y-82593800I70000J0D01*
G01*
X99294000Y-82593800D01*
G75*
G02*
X99364000Y-82663800I0J-70000D01*
G01*
X99364000Y-83713800D01*
G75*
G02*
X99294000Y-83783800I-70000J0D01*
G01*
X98694000Y-83783800D01*
G75*
G02*
X98624000Y-83713800I0J70000D01*
G01*
G37*
G36*
G01*
X98624000Y-81013800D02*
X98624000Y-79963800D01*
G75*
G02*
X98694000Y-79893800I70000J0D01*
G01*
X99294000Y-79893800D01*
G75*
G02*
X99364000Y-79963800I0J-70000D01*
G01*
X99364000Y-81013800D01*
G75*
G02*
X99294000Y-81083800I-70000J0D01*
G01*
X98694000Y-81083800D01*
G75*
G02*
X98624000Y-81013800I0J70000D01*
G01*
G37*
G36*
G01*
X96724000Y-81013800D02*
X96724000Y-79963800D01*
G75*
G02*
X96794000Y-79893800I70000J0D01*
G01*
X97394000Y-79893800D01*
G75*
G02*
X97464000Y-79963800I0J-70000D01*
G01*
X97464000Y-81013800D01*
G75*
G02*
X97394000Y-81083800I-70000J0D01*
G01*
X96794000Y-81083800D01*
G75*
G02*
X96724000Y-81013800I0J70000D01*
G01*
G37*
%TD*%
D23*
%TO.C,H2*%
X119938800Y-92379800D03*
%TD*%
%TO.C,H1*%
X61925200Y-92379800D03*
%TD*%
D24*
%TO.C,TP2*%
X80086200Y-72720200D03*
%TD*%
D25*
%TO.C,SW1*%
X118729000Y-85651200D03*
X118729000Y-83111200D03*
X118729000Y-80571200D03*
X121269000Y-80571200D03*
X121269000Y-83111200D03*
D26*
X121269000Y-85651200D03*
%TD*%
%TO.C,R10*%
G36*
G01*
X108096000Y-83381001D02*
X108096000Y-82480999D01*
G75*
G02*
X108345999Y-82231000I249999J0D01*
G01*
X109046001Y-82231000D01*
G75*
G02*
X109296000Y-82480999I0J-249999D01*
G01*
X109296000Y-83381001D01*
G75*
G02*
X109046001Y-83631000I-249999J0D01*
G01*
X108345999Y-83631000D01*
G75*
G02*
X108096000Y-83381001I0J249999D01*
G01*
G37*
G36*
G01*
X106096000Y-83381001D02*
X106096000Y-82480999D01*
G75*
G02*
X106345999Y-82231000I249999J0D01*
G01*
X107046001Y-82231000D01*
G75*
G02*
X107296000Y-82480999I0J-249999D01*
G01*
X107296000Y-83381001D01*
G75*
G02*
X107046001Y-83631000I-249999J0D01*
G01*
X106345999Y-83631000D01*
G75*
G02*
X106096000Y-83381001I0J249999D01*
G01*
G37*
%TD*%
%TO.C,R6*%
G36*
G01*
X118726000Y-87687999D02*
X118726000Y-88588001D01*
G75*
G02*
X118476001Y-88838000I-249999J0D01*
G01*
X117775999Y-88838000D01*
G75*
G02*
X117526000Y-88588001I0J249999D01*
G01*
X117526000Y-87687999D01*
G75*
G02*
X117775999Y-87438000I249999J0D01*
G01*
X118476001Y-87438000D01*
G75*
G02*
X118726000Y-87687999I0J-249999D01*
G01*
G37*
G36*
G01*
X120726000Y-87687999D02*
X120726000Y-88588001D01*
G75*
G02*
X120476001Y-88838000I-249999J0D01*
G01*
X119775999Y-88838000D01*
G75*
G02*
X119526000Y-88588001I0J249999D01*
G01*
X119526000Y-87687999D01*
G75*
G02*
X119775999Y-87438000I249999J0D01*
G01*
X120476001Y-87438000D01*
G75*
G02*
X120726000Y-87687999I0J-249999D01*
G01*
G37*
%TD*%
%TO.C,R4*%
G36*
G01*
X118710000Y-77654999D02*
X118710000Y-78555001D01*
G75*
G02*
X118460001Y-78805000I-249999J0D01*
G01*
X117759999Y-78805000D01*
G75*
G02*
X117510000Y-78555001I0J249999D01*
G01*
X117510000Y-77654999D01*
G75*
G02*
X117759999Y-77405000I249999J0D01*
G01*
X118460001Y-77405000D01*
G75*
G02*
X118710000Y-77654999I0J-249999D01*
G01*
G37*
G36*
G01*
X120710000Y-77654999D02*
X120710000Y-78555001D01*
G75*
G02*
X120460001Y-78805000I-249999J0D01*
G01*
X119759999Y-78805000D01*
G75*
G02*
X119510000Y-78555001I0J249999D01*
G01*
X119510000Y-77654999D01*
G75*
G02*
X119759999Y-77405000I249999J0D01*
G01*
X120460001Y-77405000D01*
G75*
G02*
X120710000Y-77654999I0J-249999D01*
G01*
G37*
%TD*%
%TO.C,FB2*%
G36*
G01*
X103054999Y-80410000D02*
X103955001Y-80410000D01*
G75*
G02*
X104205000Y-80659999I0J-249999D01*
G01*
X104205000Y-81360001D01*
G75*
G02*
X103955001Y-81610000I-249999J0D01*
G01*
X103054999Y-81610000D01*
G75*
G02*
X102805000Y-81360001I0J249999D01*
G01*
X102805000Y-80659999D01*
G75*
G02*
X103054999Y-80410000I249999J0D01*
G01*
G37*
G36*
G01*
X103054999Y-78410000D02*
X103955001Y-78410000D01*
G75*
G02*
X104205000Y-78659999I0J-249999D01*
G01*
X104205000Y-79360001D01*
G75*
G02*
X103955001Y-79610000I-249999J0D01*
G01*
X103054999Y-79610000D01*
G75*
G02*
X102805000Y-79360001I0J249999D01*
G01*
X102805000Y-78659999D01*
G75*
G02*
X103054999Y-78410000I249999J0D01*
G01*
G37*
%TD*%
%TO.C,FB4*%
G36*
G01*
X103359000Y-82480999D02*
X103359000Y-83381001D01*
G75*
G02*
X103109001Y-83631000I-249999J0D01*
G01*
X102408999Y-83631000D01*
G75*
G02*
X102159000Y-83381001I0J249999D01*
G01*
X102159000Y-82480999D01*
G75*
G02*
X102408999Y-82231000I249999J0D01*
G01*
X103109001Y-82231000D01*
G75*
G02*
X103359000Y-82480999I0J-249999D01*
G01*
G37*
G36*
G01*
X105359000Y-82480999D02*
X105359000Y-83381001D01*
G75*
G02*
X105109001Y-83631000I-249999J0D01*
G01*
X104408999Y-83631000D01*
G75*
G02*
X104159000Y-83381001I0J249999D01*
G01*
X104159000Y-82480999D01*
G75*
G02*
X104408999Y-82231000I249999J0D01*
G01*
X105109001Y-82231000D01*
G75*
G02*
X105359000Y-82480999I0J-249999D01*
G01*
G37*
%TD*%
%TO.C,C1*%
G36*
G01*
X100441997Y-80325800D02*
X101742003Y-80325800D01*
G75*
G02*
X101992000Y-80575797I0J-249997D01*
G01*
X101992000Y-81400803D01*
G75*
G02*
X101742003Y-81650800I-249997J0D01*
G01*
X100441997Y-81650800D01*
G75*
G02*
X100192000Y-81400803I0J249997D01*
G01*
X100192000Y-80575797D01*
G75*
G02*
X100441997Y-80325800I249997J0D01*
G01*
G37*
G36*
G01*
X100441997Y-77200800D02*
X101742003Y-77200800D01*
G75*
G02*
X101992000Y-77450797I0J-249997D01*
G01*
X101992000Y-78275803D01*
G75*
G02*
X101742003Y-78525800I-249997J0D01*
G01*
X100441997Y-78525800D01*
G75*
G02*
X100192000Y-78275803I0J249997D01*
G01*
X100192000Y-77450797D01*
G75*
G02*
X100441997Y-77200800I249997J0D01*
G01*
G37*
%TD*%
%TO.C,R33*%
G36*
G01*
X75280099Y-59201000D02*
X76180101Y-59201000D01*
G75*
G02*
X76430100Y-59450999I0J-249999D01*
G01*
X76430100Y-60151001D01*
G75*
G02*
X76180101Y-60401000I-249999J0D01*
G01*
X75280099Y-60401000D01*
G75*
G02*
X75030100Y-60151001I0J249999D01*
G01*
X75030100Y-59450999D01*
G75*
G02*
X75280099Y-59201000I249999J0D01*
G01*
G37*
G36*
G01*
X75280099Y-57201000D02*
X76180101Y-57201000D01*
G75*
G02*
X76430100Y-57450999I0J-249999D01*
G01*
X76430100Y-58151001D01*
G75*
G02*
X76180101Y-58401000I-249999J0D01*
G01*
X75280099Y-58401000D01*
G75*
G02*
X75030100Y-58151001I0J249999D01*
G01*
X75030100Y-57450999D01*
G75*
G02*
X75280099Y-57201000I249999J0D01*
G01*
G37*
%TD*%
%TO.C,R26*%
G36*
G01*
X118306001Y-43592800D02*
X117405999Y-43592800D01*
G75*
G02*
X117156000Y-43342801I0J249999D01*
G01*
X117156000Y-42642799D01*
G75*
G02*
X117405999Y-42392800I249999J0D01*
G01*
X118306001Y-42392800D01*
G75*
G02*
X118556000Y-42642799I0J-249999D01*
G01*
X118556000Y-43342801D01*
G75*
G02*
X118306001Y-43592800I-249999J0D01*
G01*
G37*
G36*
G01*
X118306001Y-45592800D02*
X117405999Y-45592800D01*
G75*
G02*
X117156000Y-45342801I0J249999D01*
G01*
X117156000Y-44642799D01*
G75*
G02*
X117405999Y-44392800I249999J0D01*
G01*
X118306001Y-44392800D01*
G75*
G02*
X118556000Y-44642799I0J-249999D01*
G01*
X118556000Y-45342801D01*
G75*
G02*
X118306001Y-45592800I-249999J0D01*
G01*
G37*
%TD*%
%TO.C,R22*%
G36*
G01*
X75050600Y-71239801D02*
X75050600Y-70339799D01*
G75*
G02*
X75300599Y-70089800I249999J0D01*
G01*
X76000601Y-70089800D01*
G75*
G02*
X76250600Y-70339799I0J-249999D01*
G01*
X76250600Y-71239801D01*
G75*
G02*
X76000601Y-71489800I-249999J0D01*
G01*
X75300599Y-71489800D01*
G75*
G02*
X75050600Y-71239801I0J249999D01*
G01*
G37*
G36*
G01*
X73050600Y-71239801D02*
X73050600Y-70339799D01*
G75*
G02*
X73300599Y-70089800I249999J0D01*
G01*
X74000601Y-70089800D01*
G75*
G02*
X74250600Y-70339799I0J-249999D01*
G01*
X74250600Y-71239801D01*
G75*
G02*
X74000601Y-71489800I-249999J0D01*
G01*
X73300599Y-71489800D01*
G75*
G02*
X73050600Y-71239801I0J249999D01*
G01*
G37*
%TD*%
%TO.C,R17*%
G36*
G01*
X75051499Y-80752900D02*
X75951501Y-80752900D01*
G75*
G02*
X76201500Y-81002899I0J-249999D01*
G01*
X76201500Y-81702901D01*
G75*
G02*
X75951501Y-81952900I-249999J0D01*
G01*
X75051499Y-81952900D01*
G75*
G02*
X74801500Y-81702901I0J249999D01*
G01*
X74801500Y-81002899D01*
G75*
G02*
X75051499Y-80752900I249999J0D01*
G01*
G37*
G36*
G01*
X75051499Y-78752900D02*
X75951501Y-78752900D01*
G75*
G02*
X76201500Y-79002899I0J-249999D01*
G01*
X76201500Y-79702901D01*
G75*
G02*
X75951501Y-79952900I-249999J0D01*
G01*
X75051499Y-79952900D01*
G75*
G02*
X74801500Y-79702901I0J249999D01*
G01*
X74801500Y-79002899D01*
G75*
G02*
X75051499Y-78752900I249999J0D01*
G01*
G37*
%TD*%
%TO.C,R16*%
G36*
G01*
X80817299Y-78263700D02*
X81717301Y-78263700D01*
G75*
G02*
X81967300Y-78513699I0J-249999D01*
G01*
X81967300Y-79213701D01*
G75*
G02*
X81717301Y-79463700I-249999J0D01*
G01*
X80817299Y-79463700D01*
G75*
G02*
X80567300Y-79213701I0J249999D01*
G01*
X80567300Y-78513699D01*
G75*
G02*
X80817299Y-78263700I249999J0D01*
G01*
G37*
G36*
G01*
X80817299Y-76263700D02*
X81717301Y-76263700D01*
G75*
G02*
X81967300Y-76513699I0J-249999D01*
G01*
X81967300Y-77213701D01*
G75*
G02*
X81717301Y-77463700I-249999J0D01*
G01*
X80817299Y-77463700D01*
G75*
G02*
X80567300Y-77213701I0J249999D01*
G01*
X80567300Y-76513699D01*
G75*
G02*
X80817299Y-76263700I249999J0D01*
G01*
G37*
%TD*%
%TO.C,R15*%
G36*
G01*
X88384801Y-77425600D02*
X87484799Y-77425600D01*
G75*
G02*
X87234800Y-77175601I0J249999D01*
G01*
X87234800Y-76475599D01*
G75*
G02*
X87484799Y-76225600I249999J0D01*
G01*
X88384801Y-76225600D01*
G75*
G02*
X88634800Y-76475599I0J-249999D01*
G01*
X88634800Y-77175601D01*
G75*
G02*
X88384801Y-77425600I-249999J0D01*
G01*
G37*
G36*
G01*
X88384801Y-79425600D02*
X87484799Y-79425600D01*
G75*
G02*
X87234800Y-79175601I0J249999D01*
G01*
X87234800Y-78475599D01*
G75*
G02*
X87484799Y-78225600I249999J0D01*
G01*
X88384801Y-78225600D01*
G75*
G02*
X88634800Y-78475599I0J-249999D01*
G01*
X88634800Y-79175601D01*
G75*
G02*
X88384801Y-79425600I-249999J0D01*
G01*
G37*
%TD*%
%TO.C,R14*%
G36*
G01*
X87051301Y-48926800D02*
X86151299Y-48926800D01*
G75*
G02*
X85901300Y-48676801I0J249999D01*
G01*
X85901300Y-47976799D01*
G75*
G02*
X86151299Y-47726800I249999J0D01*
G01*
X87051301Y-47726800D01*
G75*
G02*
X87301300Y-47976799I0J-249999D01*
G01*
X87301300Y-48676801D01*
G75*
G02*
X87051301Y-48926800I-249999J0D01*
G01*
G37*
G36*
G01*
X87051301Y-50926800D02*
X86151299Y-50926800D01*
G75*
G02*
X85901300Y-50676801I0J249999D01*
G01*
X85901300Y-49976799D01*
G75*
G02*
X86151299Y-49726800I249999J0D01*
G01*
X87051301Y-49726800D01*
G75*
G02*
X87301300Y-49976799I0J-249999D01*
G01*
X87301300Y-50676801D01*
G75*
G02*
X87051301Y-50926800I-249999J0D01*
G01*
G37*
%TD*%
%TO.C,R13*%
G36*
G01*
X93172701Y-48952200D02*
X92272699Y-48952200D01*
G75*
G02*
X92022700Y-48702201I0J249999D01*
G01*
X92022700Y-48002199D01*
G75*
G02*
X92272699Y-47752200I249999J0D01*
G01*
X93172701Y-47752200D01*
G75*
G02*
X93422700Y-48002199I0J-249999D01*
G01*
X93422700Y-48702201D01*
G75*
G02*
X93172701Y-48952200I-249999J0D01*
G01*
G37*
G36*
G01*
X93172701Y-50952200D02*
X92272699Y-50952200D01*
G75*
G02*
X92022700Y-50702201I0J249999D01*
G01*
X92022700Y-50002199D01*
G75*
G02*
X92272699Y-49752200I249999J0D01*
G01*
X93172701Y-49752200D01*
G75*
G02*
X93422700Y-50002199I0J-249999D01*
G01*
X93422700Y-50702201D01*
G75*
G02*
X93172701Y-50952200I-249999J0D01*
G01*
G37*
%TD*%
%TO.C,R28*%
G36*
G01*
X84130301Y-48901400D02*
X83230299Y-48901400D01*
G75*
G02*
X82980300Y-48651401I0J249999D01*
G01*
X82980300Y-47951399D01*
G75*
G02*
X83230299Y-47701400I249999J0D01*
G01*
X84130301Y-47701400D01*
G75*
G02*
X84380300Y-47951399I0J-249999D01*
G01*
X84380300Y-48651401D01*
G75*
G02*
X84130301Y-48901400I-249999J0D01*
G01*
G37*
G36*
G01*
X84130301Y-50901400D02*
X83230299Y-50901400D01*
G75*
G02*
X82980300Y-50651401I0J249999D01*
G01*
X82980300Y-49951399D01*
G75*
G02*
X83230299Y-49701400I249999J0D01*
G01*
X84130301Y-49701400D01*
G75*
G02*
X84380300Y-49951399I0J-249999D01*
G01*
X84380300Y-50651401D01*
G75*
G02*
X84130301Y-50901400I-249999J0D01*
G01*
G37*
%TD*%
%TO.C,Q2*%
G36*
G01*
X82570700Y-77162900D02*
X82570700Y-76562900D01*
G75*
G02*
X82640700Y-76492900I70000J0D01*
G01*
X83940700Y-76492900D01*
G75*
G02*
X84010700Y-76562900I0J-70000D01*
G01*
X84010700Y-77162900D01*
G75*
G02*
X83940700Y-77232900I-70000J0D01*
G01*
X82640700Y-77232900D01*
G75*
G02*
X82570700Y-77162900I0J70000D01*
G01*
G37*
G36*
G01*
X82570700Y-79062900D02*
X82570700Y-78462900D01*
G75*
G02*
X82640700Y-78392900I70000J0D01*
G01*
X83940700Y-78392900D01*
G75*
G02*
X84010700Y-78462900I0J-70000D01*
G01*
X84010700Y-79062900D01*
G75*
G02*
X83940700Y-79132900I-70000J0D01*
G01*
X82640700Y-79132900D01*
G75*
G02*
X82570700Y-79062900I0J70000D01*
G01*
G37*
G36*
G01*
X84670700Y-78112900D02*
X84670700Y-77512900D01*
G75*
G02*
X84740700Y-77442900I70000J0D01*
G01*
X86040700Y-77442900D01*
G75*
G02*
X86110700Y-77512900I0J-70000D01*
G01*
X86110700Y-78112900D01*
G75*
G02*
X86040700Y-78182900I-70000J0D01*
G01*
X84740700Y-78182900D01*
G75*
G02*
X84670700Y-78112900I0J70000D01*
G01*
G37*
%TD*%
%TO.C,Q1*%
G36*
G01*
X91436100Y-49992000D02*
X91436100Y-50592000D01*
G75*
G02*
X91366100Y-50662000I-70000J0D01*
G01*
X90066100Y-50662000D01*
G75*
G02*
X89996100Y-50592000I0J70000D01*
G01*
X89996100Y-49992000D01*
G75*
G02*
X90066100Y-49922000I70000J0D01*
G01*
X91366100Y-49922000D01*
G75*
G02*
X91436100Y-49992000I0J-70000D01*
G01*
G37*
G36*
G01*
X91436100Y-48092000D02*
X91436100Y-48692000D01*
G75*
G02*
X91366100Y-48762000I-70000J0D01*
G01*
X90066100Y-48762000D01*
G75*
G02*
X89996100Y-48692000I0J70000D01*
G01*
X89996100Y-48092000D01*
G75*
G02*
X90066100Y-48022000I70000J0D01*
G01*
X91366100Y-48022000D01*
G75*
G02*
X91436100Y-48092000I0J-70000D01*
G01*
G37*
G36*
G01*
X89336100Y-49042000D02*
X89336100Y-49642000D01*
G75*
G02*
X89266100Y-49712000I-70000J0D01*
G01*
X87966100Y-49712000D01*
G75*
G02*
X87896100Y-49642000I0J70000D01*
G01*
X87896100Y-49042000D01*
G75*
G02*
X87966100Y-48972000I70000J0D01*
G01*
X89266100Y-48972000D01*
G75*
G02*
X89336100Y-49042000I0J-70000D01*
G01*
G37*
%TD*%
%TO.C,Q5*%
G36*
G01*
X82402300Y-50002200D02*
X82402300Y-50602200D01*
G75*
G02*
X82332300Y-50672200I-70000J0D01*
G01*
X81032300Y-50672200D01*
G75*
G02*
X80962300Y-50602200I0J70000D01*
G01*
X80962300Y-50002200D01*
G75*
G02*
X81032300Y-49932200I70000J0D01*
G01*
X82332300Y-49932200D01*
G75*
G02*
X82402300Y-50002200I0J-70000D01*
G01*
G37*
G36*
G01*
X82402300Y-48102200D02*
X82402300Y-48702200D01*
G75*
G02*
X82332300Y-48772200I-70000J0D01*
G01*
X81032300Y-48772200D01*
G75*
G02*
X80962300Y-48702200I0J70000D01*
G01*
X80962300Y-48102200D01*
G75*
G02*
X81032300Y-48032200I70000J0D01*
G01*
X82332300Y-48032200D01*
G75*
G02*
X82402300Y-48102200I0J-70000D01*
G01*
G37*
G36*
G01*
X80302300Y-49052200D02*
X80302300Y-49652200D01*
G75*
G02*
X80232300Y-49722200I-70000J0D01*
G01*
X78932300Y-49722200D01*
G75*
G02*
X78862300Y-49652200I0J70000D01*
G01*
X78862300Y-49052200D01*
G75*
G02*
X78932300Y-48982200I70000J0D01*
G01*
X80232300Y-48982200D01*
G75*
G02*
X80302300Y-49052200I0J-70000D01*
G01*
G37*
%TD*%
D19*
%TO.C,J2*%
X69215000Y-91160600D03*
X76835000Y-91160600D03*
D20*
X70485000Y-87350600D03*
X73025000Y-87350600D03*
X75565000Y-87350600D03*
%TD*%
%TO.C,FB1*%
G36*
G01*
X95700001Y-81184800D02*
X94799999Y-81184800D01*
G75*
G02*
X94550000Y-80934801I0J249999D01*
G01*
X94550000Y-80234799D01*
G75*
G02*
X94799999Y-79984800I249999J0D01*
G01*
X95700001Y-79984800D01*
G75*
G02*
X95950000Y-80234799I0J-249999D01*
G01*
X95950000Y-80934801D01*
G75*
G02*
X95700001Y-81184800I-249999J0D01*
G01*
G37*
G36*
G01*
X95700001Y-83184800D02*
X94799999Y-83184800D01*
G75*
G02*
X94550000Y-82934801I0J249999D01*
G01*
X94550000Y-82234799D01*
G75*
G02*
X94799999Y-81984800I249999J0D01*
G01*
X95700001Y-81984800D01*
G75*
G02*
X95950000Y-82234799I0J-249999D01*
G01*
X95950000Y-82934801D01*
G75*
G02*
X95700001Y-83184800I-249999J0D01*
G01*
G37*
%TD*%
%TO.C,FB3*%
G36*
G01*
X82124500Y-84651001D02*
X82124500Y-83750999D01*
G75*
G02*
X82374499Y-83501000I249999J0D01*
G01*
X83074501Y-83501000D01*
G75*
G02*
X83324500Y-83750999I0J-249999D01*
G01*
X83324500Y-84651001D01*
G75*
G02*
X83074501Y-84901000I-249999J0D01*
G01*
X82374499Y-84901000D01*
G75*
G02*
X82124500Y-84651001I0J249999D01*
G01*
G37*
G36*
G01*
X80124500Y-84651001D02*
X80124500Y-83750999D01*
G75*
G02*
X80374499Y-83501000I249999J0D01*
G01*
X81074501Y-83501000D01*
G75*
G02*
X81324500Y-83750999I0J-249999D01*
G01*
X81324500Y-84651001D01*
G75*
G02*
X81074501Y-84901000I-249999J0D01*
G01*
X80374499Y-84901000D01*
G75*
G02*
X80124500Y-84651001I0J249999D01*
G01*
G37*
%TD*%
%TO.C,C12*%
G36*
G01*
X77849300Y-77929503D02*
X77849300Y-76629497D01*
G75*
G02*
X78099297Y-76379500I249997J0D01*
G01*
X78924303Y-76379500D01*
G75*
G02*
X79174300Y-76629497I0J-249997D01*
G01*
X79174300Y-77929503D01*
G75*
G02*
X78924303Y-78179500I-249997J0D01*
G01*
X78099297Y-78179500D01*
G75*
G02*
X77849300Y-77929503I0J249997D01*
G01*
G37*
G36*
G01*
X74724300Y-77929503D02*
X74724300Y-76629497D01*
G75*
G02*
X74974297Y-76379500I249997J0D01*
G01*
X75799303Y-76379500D01*
G75*
G02*
X76049300Y-76629497I0J-249997D01*
G01*
X76049300Y-77929503D01*
G75*
G02*
X75799303Y-78179500I-249997J0D01*
G01*
X74974297Y-78179500D01*
G75*
G02*
X74724300Y-77929503I0J249997D01*
G01*
G37*
%TD*%
%TO.C,C18*%
G36*
G01*
X78411500Y-58887597D02*
X78411500Y-60187603D01*
G75*
G02*
X78161503Y-60437600I-249997J0D01*
G01*
X77336497Y-60437600D01*
G75*
G02*
X77086500Y-60187603I0J249997D01*
G01*
X77086500Y-58887597D01*
G75*
G02*
X77336497Y-58637600I249997J0D01*
G01*
X78161503Y-58637600D01*
G75*
G02*
X78411500Y-58887597I0J-249997D01*
G01*
G37*
G36*
G01*
X81536500Y-58887597D02*
X81536500Y-60187603D01*
G75*
G02*
X81286503Y-60437600I-249997J0D01*
G01*
X80461497Y-60437600D01*
G75*
G02*
X80211500Y-60187603I0J249997D01*
G01*
X80211500Y-58887597D01*
G75*
G02*
X80461497Y-58637600I249997J0D01*
G01*
X81286503Y-58637600D01*
G75*
G02*
X81536500Y-58887597I0J-249997D01*
G01*
G37*
%TD*%
%TO.C,C3*%
G36*
G01*
X93614003Y-80176800D02*
X92313997Y-80176800D01*
G75*
G02*
X92064000Y-79926803I0J249997D01*
G01*
X92064000Y-79101797D01*
G75*
G02*
X92313997Y-78851800I249997J0D01*
G01*
X93614003Y-78851800D01*
G75*
G02*
X93864000Y-79101797I0J-249997D01*
G01*
X93864000Y-79926803D01*
G75*
G02*
X93614003Y-80176800I-249997J0D01*
G01*
G37*
G36*
G01*
X93614003Y-83301800D02*
X92313997Y-83301800D01*
G75*
G02*
X92064000Y-83051803I0J249997D01*
G01*
X92064000Y-82226797D01*
G75*
G02*
X92313997Y-81976800I249997J0D01*
G01*
X93614003Y-81976800D01*
G75*
G02*
X93864000Y-82226797I0J-249997D01*
G01*
X93864000Y-83051803D01*
G75*
G02*
X93614003Y-83301800I-249997J0D01*
G01*
G37*
%TD*%
M02*
