%TF.GenerationSoftware,KiCad,Pcbnew,(5.1.7)-1*%
%TF.CreationDate,2021-08-01T21:01:40-07:00*%
%TF.ProjectId,I2SHat,49325348-6174-42e6-9b69-6361645f7063,rev?*%
%TF.SameCoordinates,Original*%
%TF.FileFunction,Soldermask,Bot*%
%TF.FilePolarity,Negative*%
%FSLAX46Y46*%
G04 Gerber Fmt 4.6, Leading zero omitted, Abs format (unit mm)*
G04 Created by KiCad (PCBNEW (5.1.7)-1) date 2021-08-01 21:01:40*
%MOMM*%
%LPD*%
G01*
G04 APERTURE LIST*
%ADD10C,0.100000*%
%ADD11O,2.000000X3.500000*%
%ADD12O,3.500000X2.300000*%
%ADD13C,2.000000*%
%ADD14O,1.600000X1.600000*%
%ADD15R,1.600000X1.600000*%
%ADD16C,3.300000*%
%ADD17C,1.300000*%
%ADD18O,1.700000X1.700000*%
%ADD19R,1.700000X1.700000*%
%ADD20R,2.000000X1.500000*%
%ADD21R,2.000000X3.800000*%
%ADD22R,0.400000X0.650000*%
%ADD23C,5.400000*%
%ADD24C,1.524000*%
%ADD25R,1.524000X1.524000*%
%ADD26R,2.200000X1.825000*%
%ADD27R,1.825000X2.200000*%
G04 APERTURE END LIST*
D10*
G36*
X68250000Y-71000000D02*
G01*
X67250000Y-71000000D01*
X67250000Y-70000000D01*
X68250000Y-70000000D01*
X68250000Y-71000000D01*
G37*
X68250000Y-71000000D02*
X67250000Y-71000000D01*
X67250000Y-70000000D01*
X68250000Y-70000000D01*
X68250000Y-71000000D01*
G36*
X82000000Y-81000000D02*
G01*
X81000000Y-81000000D01*
X81000000Y-80000000D01*
X82000000Y-80000000D01*
X82000000Y-81000000D01*
G37*
X82000000Y-81000000D02*
X81000000Y-81000000D01*
X81000000Y-80000000D01*
X82000000Y-80000000D01*
X82000000Y-81000000D01*
G36*
X80000000Y-71000000D02*
G01*
X79000000Y-71000000D01*
X79000000Y-70000000D01*
X80000000Y-70000000D01*
X80000000Y-71000000D01*
G37*
X80000000Y-71000000D02*
X79000000Y-71000000D01*
X79000000Y-70000000D01*
X80000000Y-70000000D01*
X80000000Y-71000000D01*
G36*
X66000000Y-82000000D02*
G01*
X64000000Y-82000000D01*
X64000000Y-80000000D01*
X66000000Y-80000000D01*
X66000000Y-82000000D01*
G37*
X66000000Y-82000000D02*
X64000000Y-82000000D01*
X64000000Y-80000000D01*
X66000000Y-80000000D01*
X66000000Y-82000000D01*
D11*
%TO.C,J5*%
X111506000Y-87321000D03*
D12*
X111506000Y-91821000D03*
%TD*%
D11*
%TO.C,J3*%
X85852000Y-87321000D03*
D12*
X85852000Y-91821000D03*
%TD*%
D13*
%TO.C,TP7*%
X66065000Y-91136000D03*
%TD*%
%TO.C,TP6*%
X80035000Y-91136000D03*
%TD*%
%TO.C,TP5*%
X91719000Y-91136000D03*
%TD*%
%TO.C,TP4*%
X105689000Y-91136000D03*
%TD*%
D14*
%TO.C,A1*%
X71818500Y-68262500D03*
X71818500Y-53022500D03*
X107378500Y-68262500D03*
X74358500Y-53022500D03*
X104838500Y-68262500D03*
X76898500Y-53022500D03*
X102298500Y-68262500D03*
X79438500Y-53022500D03*
X99758500Y-68262500D03*
X81978500Y-53022500D03*
X97218500Y-68262500D03*
X84518500Y-53022500D03*
X94678500Y-68262500D03*
X87058500Y-53022500D03*
X92138500Y-68262500D03*
X89598500Y-53022500D03*
X89598500Y-68262500D03*
X92138500Y-53022500D03*
X87058500Y-68262500D03*
X94678500Y-53022500D03*
X84518500Y-68262500D03*
X97218500Y-53022500D03*
X81978500Y-68262500D03*
X99758500Y-53022500D03*
X79438500Y-68262500D03*
X102298500Y-53022500D03*
X76898500Y-68262500D03*
X104838500Y-53022500D03*
X74358500Y-68262500D03*
D15*
X107378500Y-53022500D03*
%TD*%
%TO.C,U6*%
G36*
G01*
X112699000Y-82613000D02*
X112699000Y-83663000D01*
G75*
G02*
X112629000Y-83733000I-70000J0D01*
G01*
X112029000Y-83733000D01*
G75*
G02*
X111959000Y-83663000I0J70000D01*
G01*
X111959000Y-82613000D01*
G75*
G02*
X112029000Y-82543000I70000J0D01*
G01*
X112629000Y-82543000D01*
G75*
G02*
X112699000Y-82613000I0J-70000D01*
G01*
G37*
G36*
G01*
X111749000Y-82613000D02*
X111749000Y-83663000D01*
G75*
G02*
X111679000Y-83733000I-70000J0D01*
G01*
X111079000Y-83733000D01*
G75*
G02*
X111009000Y-83663000I0J70000D01*
G01*
X111009000Y-82613000D01*
G75*
G02*
X111079000Y-82543000I70000J0D01*
G01*
X111679000Y-82543000D01*
G75*
G02*
X111749000Y-82613000I0J-70000D01*
G01*
G37*
G36*
G01*
X110799000Y-82613000D02*
X110799000Y-83663000D01*
G75*
G02*
X110729000Y-83733000I-70000J0D01*
G01*
X110129000Y-83733000D01*
G75*
G02*
X110059000Y-83663000I0J70000D01*
G01*
X110059000Y-82613000D01*
G75*
G02*
X110129000Y-82543000I70000J0D01*
G01*
X110729000Y-82543000D01*
G75*
G02*
X110799000Y-82613000I0J-70000D01*
G01*
G37*
G36*
G01*
X110799000Y-79913000D02*
X110799000Y-80963000D01*
G75*
G02*
X110729000Y-81033000I-70000J0D01*
G01*
X110129000Y-81033000D01*
G75*
G02*
X110059000Y-80963000I0J70000D01*
G01*
X110059000Y-79913000D01*
G75*
G02*
X110129000Y-79843000I70000J0D01*
G01*
X110729000Y-79843000D01*
G75*
G02*
X110799000Y-79913000I0J-70000D01*
G01*
G37*
G36*
G01*
X112699000Y-79913000D02*
X112699000Y-80963000D01*
G75*
G02*
X112629000Y-81033000I-70000J0D01*
G01*
X112029000Y-81033000D01*
G75*
G02*
X111959000Y-80963000I0J70000D01*
G01*
X111959000Y-79913000D01*
G75*
G02*
X112029000Y-79843000I70000J0D01*
G01*
X112629000Y-79843000D01*
G75*
G02*
X112699000Y-79913000I0J-70000D01*
G01*
G37*
%TD*%
%TO.C,U5*%
G36*
G01*
X116382000Y-82613000D02*
X116382000Y-83663000D01*
G75*
G02*
X116312000Y-83733000I-70000J0D01*
G01*
X115712000Y-83733000D01*
G75*
G02*
X115642000Y-83663000I0J70000D01*
G01*
X115642000Y-82613000D01*
G75*
G02*
X115712000Y-82543000I70000J0D01*
G01*
X116312000Y-82543000D01*
G75*
G02*
X116382000Y-82613000I0J-70000D01*
G01*
G37*
G36*
G01*
X115432000Y-82613000D02*
X115432000Y-83663000D01*
G75*
G02*
X115362000Y-83733000I-70000J0D01*
G01*
X114762000Y-83733000D01*
G75*
G02*
X114692000Y-83663000I0J70000D01*
G01*
X114692000Y-82613000D01*
G75*
G02*
X114762000Y-82543000I70000J0D01*
G01*
X115362000Y-82543000D01*
G75*
G02*
X115432000Y-82613000I0J-70000D01*
G01*
G37*
G36*
G01*
X114482000Y-82613000D02*
X114482000Y-83663000D01*
G75*
G02*
X114412000Y-83733000I-70000J0D01*
G01*
X113812000Y-83733000D01*
G75*
G02*
X113742000Y-83663000I0J70000D01*
G01*
X113742000Y-82613000D01*
G75*
G02*
X113812000Y-82543000I70000J0D01*
G01*
X114412000Y-82543000D01*
G75*
G02*
X114482000Y-82613000I0J-70000D01*
G01*
G37*
G36*
G01*
X114482000Y-79913000D02*
X114482000Y-80963000D01*
G75*
G02*
X114412000Y-81033000I-70000J0D01*
G01*
X113812000Y-81033000D01*
G75*
G02*
X113742000Y-80963000I0J70000D01*
G01*
X113742000Y-79913000D01*
G75*
G02*
X113812000Y-79843000I70000J0D01*
G01*
X114412000Y-79843000D01*
G75*
G02*
X114482000Y-79913000I0J-70000D01*
G01*
G37*
G36*
G01*
X116382000Y-79913000D02*
X116382000Y-80963000D01*
G75*
G02*
X116312000Y-81033000I-70000J0D01*
G01*
X115712000Y-81033000D01*
G75*
G02*
X115642000Y-80963000I0J70000D01*
G01*
X115642000Y-79913000D01*
G75*
G02*
X115712000Y-79843000I70000J0D01*
G01*
X116312000Y-79843000D01*
G75*
G02*
X116382000Y-79913000I0J-70000D01*
G01*
G37*
%TD*%
%TO.C,R5*%
G36*
G01*
X104286000Y-81095001D02*
X104286000Y-80194999D01*
G75*
G02*
X104535999Y-79945000I249999J0D01*
G01*
X105236001Y-79945000D01*
G75*
G02*
X105486000Y-80194999I0J-249999D01*
G01*
X105486000Y-81095001D01*
G75*
G02*
X105236001Y-81345000I-249999J0D01*
G01*
X104535999Y-81345000D01*
G75*
G02*
X104286000Y-81095001I0J249999D01*
G01*
G37*
G36*
G01*
X102286000Y-81095001D02*
X102286000Y-80194999D01*
G75*
G02*
X102535999Y-79945000I249999J0D01*
G01*
X103236001Y-79945000D01*
G75*
G02*
X103486000Y-80194999I0J-249999D01*
G01*
X103486000Y-81095001D01*
G75*
G02*
X103236001Y-81345000I-249999J0D01*
G01*
X102535999Y-81345000D01*
G75*
G02*
X102286000Y-81095001I0J249999D01*
G01*
G37*
%TD*%
%TO.C,R1*%
G36*
G01*
X99168000Y-80194999D02*
X99168000Y-81095001D01*
G75*
G02*
X98918001Y-81345000I-249999J0D01*
G01*
X98217999Y-81345000D01*
G75*
G02*
X97968000Y-81095001I0J249999D01*
G01*
X97968000Y-80194999D01*
G75*
G02*
X98217999Y-79945000I249999J0D01*
G01*
X98918001Y-79945000D01*
G75*
G02*
X99168000Y-80194999I0J-249999D01*
G01*
G37*
G36*
G01*
X101168000Y-80194999D02*
X101168000Y-81095001D01*
G75*
G02*
X100918001Y-81345000I-249999J0D01*
G01*
X100217999Y-81345000D01*
G75*
G02*
X99968000Y-81095001I0J249999D01*
G01*
X99968000Y-80194999D01*
G75*
G02*
X100217999Y-79945000I249999J0D01*
G01*
X100918001Y-79945000D01*
G75*
G02*
X101168000Y-80194999I0J-249999D01*
G01*
G37*
%TD*%
%TO.C,C6*%
G36*
G01*
X88757997Y-88149000D02*
X90058003Y-88149000D01*
G75*
G02*
X90308000Y-88398997I0J-249997D01*
G01*
X90308000Y-89224003D01*
G75*
G02*
X90058003Y-89474000I-249997J0D01*
G01*
X88757997Y-89474000D01*
G75*
G02*
X88508000Y-89224003I0J249997D01*
G01*
X88508000Y-88398997D01*
G75*
G02*
X88757997Y-88149000I249997J0D01*
G01*
G37*
G36*
G01*
X88757997Y-85024000D02*
X90058003Y-85024000D01*
G75*
G02*
X90308000Y-85273997I0J-249997D01*
G01*
X90308000Y-86099003D01*
G75*
G02*
X90058003Y-86349000I-249997J0D01*
G01*
X88757997Y-86349000D01*
G75*
G02*
X88508000Y-86099003I0J249997D01*
G01*
X88508000Y-85273997D01*
G75*
G02*
X88757997Y-85024000I249997J0D01*
G01*
G37*
%TD*%
D16*
%TO.C,J1*%
X94869000Y-91160600D03*
X102489000Y-91160600D03*
D17*
X96139000Y-87350600D03*
X98679000Y-87350600D03*
X101219000Y-87350600D03*
%TD*%
D18*
%TO.C,J4*%
X115049300Y-42103040D03*
X115049300Y-44643040D03*
X112509300Y-42103040D03*
X112509300Y-44643040D03*
X109969300Y-42103040D03*
X109969300Y-44643040D03*
X107429300Y-42103040D03*
X107429300Y-44643040D03*
X104889300Y-42103040D03*
X104889300Y-44643040D03*
X102349300Y-42103040D03*
X102349300Y-44643040D03*
X99809300Y-42103040D03*
X99809300Y-44643040D03*
X97269300Y-42103040D03*
X97269300Y-44643040D03*
X94729300Y-42103040D03*
X94729300Y-44643040D03*
X92189300Y-42103040D03*
X92189300Y-44643040D03*
X89649300Y-42103040D03*
X89649300Y-44643040D03*
X87109300Y-42103040D03*
X87109300Y-44643040D03*
X84569300Y-42103040D03*
X84569300Y-44643040D03*
X82029300Y-42103040D03*
X82029300Y-44643040D03*
X79489300Y-42103040D03*
X79489300Y-44643040D03*
X76949300Y-42103040D03*
X76949300Y-44643040D03*
X74409300Y-42103040D03*
X74409300Y-44643040D03*
X71869300Y-42103040D03*
X71869300Y-44643040D03*
X69329300Y-42103040D03*
X69329300Y-44643040D03*
X66789300Y-42103040D03*
D19*
X66789300Y-44643040D03*
%TD*%
%TO.C,R19*%
G36*
G01*
X89058700Y-47948001D02*
X89058700Y-47047999D01*
G75*
G02*
X89308699Y-46798000I249999J0D01*
G01*
X90008701Y-46798000D01*
G75*
G02*
X90258700Y-47047999I0J-249999D01*
G01*
X90258700Y-47948001D01*
G75*
G02*
X90008701Y-48198000I-249999J0D01*
G01*
X89308699Y-48198000D01*
G75*
G02*
X89058700Y-47948001I0J249999D01*
G01*
G37*
G36*
G01*
X87058700Y-47948001D02*
X87058700Y-47047999D01*
G75*
G02*
X87308699Y-46798000I249999J0D01*
G01*
X88008701Y-46798000D01*
G75*
G02*
X88258700Y-47047999I0J-249999D01*
G01*
X88258700Y-47948001D01*
G75*
G02*
X88008701Y-48198000I-249999J0D01*
G01*
X87308699Y-48198000D01*
G75*
G02*
X87058700Y-47948001I0J249999D01*
G01*
G37*
%TD*%
%TO.C,R7*%
G36*
G01*
X89017001Y-81345200D02*
X87766999Y-81345200D01*
G75*
G02*
X87517000Y-81095201I0J249999D01*
G01*
X87517000Y-80295199D01*
G75*
G02*
X87766999Y-80045200I249999J0D01*
G01*
X89017001Y-80045200D01*
G75*
G02*
X89267000Y-80295199I0J-249999D01*
G01*
X89267000Y-81095201D01*
G75*
G02*
X89017001Y-81345200I-249999J0D01*
G01*
G37*
G36*
G01*
X89017001Y-84445200D02*
X87766999Y-84445200D01*
G75*
G02*
X87517000Y-84195201I0J249999D01*
G01*
X87517000Y-83395199D01*
G75*
G02*
X87766999Y-83145200I249999J0D01*
G01*
X89017001Y-83145200D01*
G75*
G02*
X89267000Y-83395199I0J-249999D01*
G01*
X89267000Y-84195201D01*
G75*
G02*
X89017001Y-84445200I-249999J0D01*
G01*
G37*
%TD*%
%TO.C,R8*%
G36*
G01*
X91303001Y-81345200D02*
X90052999Y-81345200D01*
G75*
G02*
X89803000Y-81095201I0J249999D01*
G01*
X89803000Y-80295199D01*
G75*
G02*
X90052999Y-80045200I249999J0D01*
G01*
X91303001Y-80045200D01*
G75*
G02*
X91553000Y-80295199I0J-249999D01*
G01*
X91553000Y-81095201D01*
G75*
G02*
X91303001Y-81345200I-249999J0D01*
G01*
G37*
G36*
G01*
X91303001Y-84445200D02*
X90052999Y-84445200D01*
G75*
G02*
X89803000Y-84195201I0J249999D01*
G01*
X89803000Y-83395199D01*
G75*
G02*
X90052999Y-83145200I249999J0D01*
G01*
X91303001Y-83145200D01*
G75*
G02*
X91553000Y-83395199I0J-249999D01*
G01*
X91553000Y-84195201D01*
G75*
G02*
X91303001Y-84445200I-249999J0D01*
G01*
G37*
%TD*%
%TO.C,R12*%
G36*
G01*
X108575001Y-86349000D02*
X107324999Y-86349000D01*
G75*
G02*
X107075000Y-86099001I0J249999D01*
G01*
X107075000Y-85298999D01*
G75*
G02*
X107324999Y-85049000I249999J0D01*
G01*
X108575001Y-85049000D01*
G75*
G02*
X108825000Y-85298999I0J-249999D01*
G01*
X108825000Y-86099001D01*
G75*
G02*
X108575001Y-86349000I-249999J0D01*
G01*
G37*
G36*
G01*
X108575001Y-89449000D02*
X107324999Y-89449000D01*
G75*
G02*
X107075000Y-89199001I0J249999D01*
G01*
X107075000Y-88398999D01*
G75*
G02*
X107324999Y-88149000I249999J0D01*
G01*
X108575001Y-88149000D01*
G75*
G02*
X108825000Y-88398999I0J-249999D01*
G01*
X108825000Y-89199001D01*
G75*
G02*
X108575001Y-89449000I-249999J0D01*
G01*
G37*
%TD*%
D20*
%TO.C,U10*%
X115556900Y-75413900D03*
X115556900Y-70813900D03*
X115556900Y-73113900D03*
D21*
X121856900Y-73113900D03*
%TD*%
D20*
%TO.C,U11*%
X115582300Y-67920900D03*
X115582300Y-63320900D03*
X115582300Y-65620900D03*
D21*
X121882300Y-65620900D03*
%TD*%
D20*
%TO.C,U9*%
X115607700Y-60339000D03*
X115607700Y-55739000D03*
X115607700Y-58039000D03*
D21*
X121907700Y-58039000D03*
%TD*%
%TO.C,U7*%
G36*
G01*
X76316300Y-75974100D02*
X76066300Y-75974100D01*
G75*
G02*
X75941300Y-75849100I0J125000D01*
G01*
X75941300Y-74199100D01*
G75*
G02*
X76066300Y-74074100I125000J0D01*
G01*
X76316300Y-74074100D01*
G75*
G02*
X76441300Y-74199100I0J-125000D01*
G01*
X76441300Y-75849100D01*
G75*
G02*
X76316300Y-75974100I-125000J0D01*
G01*
G37*
G36*
G01*
X75666300Y-75974100D02*
X75416300Y-75974100D01*
G75*
G02*
X75291300Y-75849100I0J125000D01*
G01*
X75291300Y-74199100D01*
G75*
G02*
X75416300Y-74074100I125000J0D01*
G01*
X75666300Y-74074100D01*
G75*
G02*
X75791300Y-74199100I0J-125000D01*
G01*
X75791300Y-75849100D01*
G75*
G02*
X75666300Y-75974100I-125000J0D01*
G01*
G37*
G36*
G01*
X75016300Y-75974100D02*
X74766300Y-75974100D01*
G75*
G02*
X74641300Y-75849100I0J125000D01*
G01*
X74641300Y-74199100D01*
G75*
G02*
X74766300Y-74074100I125000J0D01*
G01*
X75016300Y-74074100D01*
G75*
G02*
X75141300Y-74199100I0J-125000D01*
G01*
X75141300Y-75849100D01*
G75*
G02*
X75016300Y-75974100I-125000J0D01*
G01*
G37*
G36*
G01*
X74366300Y-75974100D02*
X74116300Y-75974100D01*
G75*
G02*
X73991300Y-75849100I0J125000D01*
G01*
X73991300Y-74199100D01*
G75*
G02*
X74116300Y-74074100I125000J0D01*
G01*
X74366300Y-74074100D01*
G75*
G02*
X74491300Y-74199100I0J-125000D01*
G01*
X74491300Y-75849100D01*
G75*
G02*
X74366300Y-75974100I-125000J0D01*
G01*
G37*
G36*
G01*
X73716300Y-75974100D02*
X73466300Y-75974100D01*
G75*
G02*
X73341300Y-75849100I0J125000D01*
G01*
X73341300Y-74199100D01*
G75*
G02*
X73466300Y-74074100I125000J0D01*
G01*
X73716300Y-74074100D01*
G75*
G02*
X73841300Y-74199100I0J-125000D01*
G01*
X73841300Y-75849100D01*
G75*
G02*
X73716300Y-75974100I-125000J0D01*
G01*
G37*
G36*
G01*
X73066300Y-75974100D02*
X72816300Y-75974100D01*
G75*
G02*
X72691300Y-75849100I0J125000D01*
G01*
X72691300Y-74199100D01*
G75*
G02*
X72816300Y-74074100I125000J0D01*
G01*
X73066300Y-74074100D01*
G75*
G02*
X73191300Y-74199100I0J-125000D01*
G01*
X73191300Y-75849100D01*
G75*
G02*
X73066300Y-75974100I-125000J0D01*
G01*
G37*
G36*
G01*
X72416300Y-75974100D02*
X72166300Y-75974100D01*
G75*
G02*
X72041300Y-75849100I0J125000D01*
G01*
X72041300Y-74199100D01*
G75*
G02*
X72166300Y-74074100I125000J0D01*
G01*
X72416300Y-74074100D01*
G75*
G02*
X72541300Y-74199100I0J-125000D01*
G01*
X72541300Y-75849100D01*
G75*
G02*
X72416300Y-75974100I-125000J0D01*
G01*
G37*
G36*
G01*
X71766300Y-75974100D02*
X71516300Y-75974100D01*
G75*
G02*
X71391300Y-75849100I0J125000D01*
G01*
X71391300Y-74199100D01*
G75*
G02*
X71516300Y-74074100I125000J0D01*
G01*
X71766300Y-74074100D01*
G75*
G02*
X71891300Y-74199100I0J-125000D01*
G01*
X71891300Y-75849100D01*
G75*
G02*
X71766300Y-75974100I-125000J0D01*
G01*
G37*
G36*
G01*
X71116300Y-75974100D02*
X70866300Y-75974100D01*
G75*
G02*
X70741300Y-75849100I0J125000D01*
G01*
X70741300Y-74199100D01*
G75*
G02*
X70866300Y-74074100I125000J0D01*
G01*
X71116300Y-74074100D01*
G75*
G02*
X71241300Y-74199100I0J-125000D01*
G01*
X71241300Y-75849100D01*
G75*
G02*
X71116300Y-75974100I-125000J0D01*
G01*
G37*
G36*
G01*
X70466300Y-75974100D02*
X70216300Y-75974100D01*
G75*
G02*
X70091300Y-75849100I0J125000D01*
G01*
X70091300Y-74199100D01*
G75*
G02*
X70216300Y-74074100I125000J0D01*
G01*
X70466300Y-74074100D01*
G75*
G02*
X70591300Y-74199100I0J-125000D01*
G01*
X70591300Y-75849100D01*
G75*
G02*
X70466300Y-75974100I-125000J0D01*
G01*
G37*
G36*
G01*
X70466300Y-82974100D02*
X70216300Y-82974100D01*
G75*
G02*
X70091300Y-82849100I0J125000D01*
G01*
X70091300Y-81199100D01*
G75*
G02*
X70216300Y-81074100I125000J0D01*
G01*
X70466300Y-81074100D01*
G75*
G02*
X70591300Y-81199100I0J-125000D01*
G01*
X70591300Y-82849100D01*
G75*
G02*
X70466300Y-82974100I-125000J0D01*
G01*
G37*
G36*
G01*
X71116300Y-82974100D02*
X70866300Y-82974100D01*
G75*
G02*
X70741300Y-82849100I0J125000D01*
G01*
X70741300Y-81199100D01*
G75*
G02*
X70866300Y-81074100I125000J0D01*
G01*
X71116300Y-81074100D01*
G75*
G02*
X71241300Y-81199100I0J-125000D01*
G01*
X71241300Y-82849100D01*
G75*
G02*
X71116300Y-82974100I-125000J0D01*
G01*
G37*
G36*
G01*
X71766300Y-82974100D02*
X71516300Y-82974100D01*
G75*
G02*
X71391300Y-82849100I0J125000D01*
G01*
X71391300Y-81199100D01*
G75*
G02*
X71516300Y-81074100I125000J0D01*
G01*
X71766300Y-81074100D01*
G75*
G02*
X71891300Y-81199100I0J-125000D01*
G01*
X71891300Y-82849100D01*
G75*
G02*
X71766300Y-82974100I-125000J0D01*
G01*
G37*
G36*
G01*
X72416300Y-82974100D02*
X72166300Y-82974100D01*
G75*
G02*
X72041300Y-82849100I0J125000D01*
G01*
X72041300Y-81199100D01*
G75*
G02*
X72166300Y-81074100I125000J0D01*
G01*
X72416300Y-81074100D01*
G75*
G02*
X72541300Y-81199100I0J-125000D01*
G01*
X72541300Y-82849100D01*
G75*
G02*
X72416300Y-82974100I-125000J0D01*
G01*
G37*
G36*
G01*
X73066300Y-82974100D02*
X72816300Y-82974100D01*
G75*
G02*
X72691300Y-82849100I0J125000D01*
G01*
X72691300Y-81199100D01*
G75*
G02*
X72816300Y-81074100I125000J0D01*
G01*
X73066300Y-81074100D01*
G75*
G02*
X73191300Y-81199100I0J-125000D01*
G01*
X73191300Y-82849100D01*
G75*
G02*
X73066300Y-82974100I-125000J0D01*
G01*
G37*
G36*
G01*
X73716300Y-82974100D02*
X73466300Y-82974100D01*
G75*
G02*
X73341300Y-82849100I0J125000D01*
G01*
X73341300Y-81199100D01*
G75*
G02*
X73466300Y-81074100I125000J0D01*
G01*
X73716300Y-81074100D01*
G75*
G02*
X73841300Y-81199100I0J-125000D01*
G01*
X73841300Y-82849100D01*
G75*
G02*
X73716300Y-82974100I-125000J0D01*
G01*
G37*
G36*
G01*
X74366300Y-82974100D02*
X74116300Y-82974100D01*
G75*
G02*
X73991300Y-82849100I0J125000D01*
G01*
X73991300Y-81199100D01*
G75*
G02*
X74116300Y-81074100I125000J0D01*
G01*
X74366300Y-81074100D01*
G75*
G02*
X74491300Y-81199100I0J-125000D01*
G01*
X74491300Y-82849100D01*
G75*
G02*
X74366300Y-82974100I-125000J0D01*
G01*
G37*
G36*
G01*
X75016300Y-82974100D02*
X74766300Y-82974100D01*
G75*
G02*
X74641300Y-82849100I0J125000D01*
G01*
X74641300Y-81199100D01*
G75*
G02*
X74766300Y-81074100I125000J0D01*
G01*
X75016300Y-81074100D01*
G75*
G02*
X75141300Y-81199100I0J-125000D01*
G01*
X75141300Y-82849100D01*
G75*
G02*
X75016300Y-82974100I-125000J0D01*
G01*
G37*
G36*
G01*
X75666300Y-82974100D02*
X75416300Y-82974100D01*
G75*
G02*
X75291300Y-82849100I0J125000D01*
G01*
X75291300Y-81199100D01*
G75*
G02*
X75416300Y-81074100I125000J0D01*
G01*
X75666300Y-81074100D01*
G75*
G02*
X75791300Y-81199100I0J-125000D01*
G01*
X75791300Y-82849100D01*
G75*
G02*
X75666300Y-82974100I-125000J0D01*
G01*
G37*
G36*
G01*
X76316300Y-82974100D02*
X76066300Y-82974100D01*
G75*
G02*
X75941300Y-82849100I0J125000D01*
G01*
X75941300Y-81199100D01*
G75*
G02*
X76066300Y-81074100I125000J0D01*
G01*
X76316300Y-81074100D01*
G75*
G02*
X76441300Y-81199100I0J-125000D01*
G01*
X76441300Y-82849100D01*
G75*
G02*
X76316300Y-82974100I-125000J0D01*
G01*
G37*
%TD*%
D22*
%TO.C,U2*%
X101869000Y-77028000D03*
X100569000Y-77028000D03*
X101219000Y-78928000D03*
X101219000Y-77028000D03*
X100569000Y-78928000D03*
X101869000Y-78928000D03*
%TD*%
%TO.C,U4*%
G36*
G01*
X109016000Y-82613000D02*
X109016000Y-83663000D01*
G75*
G02*
X108946000Y-83733000I-70000J0D01*
G01*
X108346000Y-83733000D01*
G75*
G02*
X108276000Y-83663000I0J70000D01*
G01*
X108276000Y-82613000D01*
G75*
G02*
X108346000Y-82543000I70000J0D01*
G01*
X108946000Y-82543000D01*
G75*
G02*
X109016000Y-82613000I0J-70000D01*
G01*
G37*
G36*
G01*
X108066000Y-82613000D02*
X108066000Y-83663000D01*
G75*
G02*
X107996000Y-83733000I-70000J0D01*
G01*
X107396000Y-83733000D01*
G75*
G02*
X107326000Y-83663000I0J70000D01*
G01*
X107326000Y-82613000D01*
G75*
G02*
X107396000Y-82543000I70000J0D01*
G01*
X107996000Y-82543000D01*
G75*
G02*
X108066000Y-82613000I0J-70000D01*
G01*
G37*
G36*
G01*
X107116000Y-82613000D02*
X107116000Y-83663000D01*
G75*
G02*
X107046000Y-83733000I-70000J0D01*
G01*
X106446000Y-83733000D01*
G75*
G02*
X106376000Y-83663000I0J70000D01*
G01*
X106376000Y-82613000D01*
G75*
G02*
X106446000Y-82543000I70000J0D01*
G01*
X107046000Y-82543000D01*
G75*
G02*
X107116000Y-82613000I0J-70000D01*
G01*
G37*
G36*
G01*
X107116000Y-79913000D02*
X107116000Y-80963000D01*
G75*
G02*
X107046000Y-81033000I-70000J0D01*
G01*
X106446000Y-81033000D01*
G75*
G02*
X106376000Y-80963000I0J70000D01*
G01*
X106376000Y-79913000D01*
G75*
G02*
X106446000Y-79843000I70000J0D01*
G01*
X107046000Y-79843000D01*
G75*
G02*
X107116000Y-79913000I0J-70000D01*
G01*
G37*
G36*
G01*
X109016000Y-79913000D02*
X109016000Y-80963000D01*
G75*
G02*
X108946000Y-81033000I-70000J0D01*
G01*
X108346000Y-81033000D01*
G75*
G02*
X108276000Y-80963000I0J70000D01*
G01*
X108276000Y-79913000D01*
G75*
G02*
X108346000Y-79843000I70000J0D01*
G01*
X108946000Y-79843000D01*
G75*
G02*
X109016000Y-79913000I0J-70000D01*
G01*
G37*
%TD*%
D23*
%TO.C,H2*%
X119938800Y-92379800D03*
%TD*%
%TO.C,H1*%
X61925200Y-92379800D03*
%TD*%
D24*
%TO.C,SW1*%
X118729000Y-85651200D03*
X118729000Y-83111200D03*
X118729000Y-80571200D03*
X121269000Y-80571200D03*
X121269000Y-83111200D03*
D25*
X121269000Y-85651200D03*
%TD*%
%TO.C,R11*%
G36*
G01*
X109582000Y-78162999D02*
X109582000Y-79063001D01*
G75*
G02*
X109332001Y-79313000I-249999J0D01*
G01*
X108631999Y-79313000D01*
G75*
G02*
X108382000Y-79063001I0J249999D01*
G01*
X108382000Y-78162999D01*
G75*
G02*
X108631999Y-77913000I249999J0D01*
G01*
X109332001Y-77913000D01*
G75*
G02*
X109582000Y-78162999I0J-249999D01*
G01*
G37*
G36*
G01*
X111582000Y-78162999D02*
X111582000Y-79063001D01*
G75*
G02*
X111332001Y-79313000I-249999J0D01*
G01*
X110631999Y-79313000D01*
G75*
G02*
X110382000Y-79063001I0J249999D01*
G01*
X110382000Y-78162999D01*
G75*
G02*
X110631999Y-77913000I249999J0D01*
G01*
X111332001Y-77913000D01*
G75*
G02*
X111582000Y-78162999I0J-249999D01*
G01*
G37*
%TD*%
%TO.C,R9*%
G36*
G01*
X114027000Y-77781999D02*
X114027000Y-78682001D01*
G75*
G02*
X113777001Y-78932000I-249999J0D01*
G01*
X113076999Y-78932000D01*
G75*
G02*
X112827000Y-78682001I0J249999D01*
G01*
X112827000Y-77781999D01*
G75*
G02*
X113076999Y-77532000I249999J0D01*
G01*
X113777001Y-77532000D01*
G75*
G02*
X114027000Y-77781999I0J-249999D01*
G01*
G37*
G36*
G01*
X116027000Y-77781999D02*
X116027000Y-78682001D01*
G75*
G02*
X115777001Y-78932000I-249999J0D01*
G01*
X115076999Y-78932000D01*
G75*
G02*
X114827000Y-78682001I0J249999D01*
G01*
X114827000Y-77781999D01*
G75*
G02*
X115076999Y-77532000I249999J0D01*
G01*
X115777001Y-77532000D01*
G75*
G02*
X116027000Y-77781999I0J-249999D01*
G01*
G37*
%TD*%
D26*
%TO.C,L1*%
X96012000Y-79738500D03*
X96012000Y-82313500D03*
%TD*%
%TO.C,C7*%
G36*
G01*
X114411997Y-88149000D02*
X115712003Y-88149000D01*
G75*
G02*
X115962000Y-88398997I0J-249997D01*
G01*
X115962000Y-89224003D01*
G75*
G02*
X115712003Y-89474000I-249997J0D01*
G01*
X114411997Y-89474000D01*
G75*
G02*
X114162000Y-89224003I0J249997D01*
G01*
X114162000Y-88398997D01*
G75*
G02*
X114411997Y-88149000I249997J0D01*
G01*
G37*
G36*
G01*
X114411997Y-85024000D02*
X115712003Y-85024000D01*
G75*
G02*
X115962000Y-85273997I0J-249997D01*
G01*
X115962000Y-86099003D01*
G75*
G02*
X115712003Y-86349000I-249997J0D01*
G01*
X114411997Y-86349000D01*
G75*
G02*
X114162000Y-86099003I0J249997D01*
G01*
X114162000Y-85273997D01*
G75*
G02*
X114411997Y-85024000I249997J0D01*
G01*
G37*
%TD*%
%TO.C,U3*%
G36*
G01*
X80087000Y-83630000D02*
X80087000Y-82580000D01*
G75*
G02*
X80157000Y-82510000I70000J0D01*
G01*
X80757000Y-82510000D01*
G75*
G02*
X80827000Y-82580000I0J-70000D01*
G01*
X80827000Y-83630000D01*
G75*
G02*
X80757000Y-83700000I-70000J0D01*
G01*
X80157000Y-83700000D01*
G75*
G02*
X80087000Y-83630000I0J70000D01*
G01*
G37*
G36*
G01*
X81037000Y-83630000D02*
X81037000Y-82580000D01*
G75*
G02*
X81107000Y-82510000I70000J0D01*
G01*
X81707000Y-82510000D01*
G75*
G02*
X81777000Y-82580000I0J-70000D01*
G01*
X81777000Y-83630000D01*
G75*
G02*
X81707000Y-83700000I-70000J0D01*
G01*
X81107000Y-83700000D01*
G75*
G02*
X81037000Y-83630000I0J70000D01*
G01*
G37*
G36*
G01*
X81987000Y-83630000D02*
X81987000Y-82580000D01*
G75*
G02*
X82057000Y-82510000I70000J0D01*
G01*
X82657000Y-82510000D01*
G75*
G02*
X82727000Y-82580000I0J-70000D01*
G01*
X82727000Y-83630000D01*
G75*
G02*
X82657000Y-83700000I-70000J0D01*
G01*
X82057000Y-83700000D01*
G75*
G02*
X81987000Y-83630000I0J70000D01*
G01*
G37*
G36*
G01*
X81987000Y-86330000D02*
X81987000Y-85280000D01*
G75*
G02*
X82057000Y-85210000I70000J0D01*
G01*
X82657000Y-85210000D01*
G75*
G02*
X82727000Y-85280000I0J-70000D01*
G01*
X82727000Y-86330000D01*
G75*
G02*
X82657000Y-86400000I-70000J0D01*
G01*
X82057000Y-86400000D01*
G75*
G02*
X81987000Y-86330000I0J70000D01*
G01*
G37*
G36*
G01*
X80087000Y-86330000D02*
X80087000Y-85280000D01*
G75*
G02*
X80157000Y-85210000I70000J0D01*
G01*
X80757000Y-85210000D01*
G75*
G02*
X80827000Y-85280000I0J-70000D01*
G01*
X80827000Y-86330000D01*
G75*
G02*
X80757000Y-86400000I-70000J0D01*
G01*
X80157000Y-86400000D01*
G75*
G02*
X80087000Y-86330000I0J70000D01*
G01*
G37*
%TD*%
%TO.C,R27*%
G36*
G01*
X64878799Y-72028000D02*
X65778801Y-72028000D01*
G75*
G02*
X66028800Y-72277999I0J-249999D01*
G01*
X66028800Y-72978001D01*
G75*
G02*
X65778801Y-73228000I-249999J0D01*
G01*
X64878799Y-73228000D01*
G75*
G02*
X64628800Y-72978001I0J249999D01*
G01*
X64628800Y-72277999D01*
G75*
G02*
X64878799Y-72028000I249999J0D01*
G01*
G37*
G36*
G01*
X64878799Y-70028000D02*
X65778801Y-70028000D01*
G75*
G02*
X66028800Y-70277999I0J-249999D01*
G01*
X66028800Y-70978001D01*
G75*
G02*
X65778801Y-71228000I-249999J0D01*
G01*
X64878799Y-71228000D01*
G75*
G02*
X64628800Y-70978001I0J249999D01*
G01*
X64628800Y-70277999D01*
G75*
G02*
X64878799Y-70028000I249999J0D01*
G01*
G37*
%TD*%
%TO.C,R23*%
G36*
G01*
X70516800Y-70339799D02*
X70516800Y-71239801D01*
G75*
G02*
X70266801Y-71489800I-249999J0D01*
G01*
X69566799Y-71489800D01*
G75*
G02*
X69316800Y-71239801I0J249999D01*
G01*
X69316800Y-70339799D01*
G75*
G02*
X69566799Y-70089800I249999J0D01*
G01*
X70266801Y-70089800D01*
G75*
G02*
X70516800Y-70339799I0J-249999D01*
G01*
G37*
G36*
G01*
X72516800Y-70339799D02*
X72516800Y-71239801D01*
G75*
G02*
X72266801Y-71489800I-249999J0D01*
G01*
X71566799Y-71489800D01*
G75*
G02*
X71316800Y-71239801I0J249999D01*
G01*
X71316800Y-70339799D01*
G75*
G02*
X71566799Y-70089800I249999J0D01*
G01*
X72266801Y-70089800D01*
G75*
G02*
X72516800Y-70339799I0J-249999D01*
G01*
G37*
%TD*%
%TO.C,R21*%
G36*
G01*
X76803200Y-73170201D02*
X76803200Y-72270199D01*
G75*
G02*
X77053199Y-72020200I249999J0D01*
G01*
X77753201Y-72020200D01*
G75*
G02*
X78003200Y-72270199I0J-249999D01*
G01*
X78003200Y-73170201D01*
G75*
G02*
X77753201Y-73420200I-249999J0D01*
G01*
X77053199Y-73420200D01*
G75*
G02*
X76803200Y-73170201I0J249999D01*
G01*
G37*
G36*
G01*
X74803200Y-73170201D02*
X74803200Y-72270199D01*
G75*
G02*
X75053199Y-72020200I249999J0D01*
G01*
X75753201Y-72020200D01*
G75*
G02*
X76003200Y-72270199I0J-249999D01*
G01*
X76003200Y-73170201D01*
G75*
G02*
X75753201Y-73420200I-249999J0D01*
G01*
X75053199Y-73420200D01*
G75*
G02*
X74803200Y-73170201I0J249999D01*
G01*
G37*
%TD*%
%TO.C,R20*%
G36*
G01*
X73361600Y-84335199D02*
X73361600Y-85235201D01*
G75*
G02*
X73111601Y-85485200I-249999J0D01*
G01*
X72411599Y-85485200D01*
G75*
G02*
X72161600Y-85235201I0J249999D01*
G01*
X72161600Y-84335199D01*
G75*
G02*
X72411599Y-84085200I249999J0D01*
G01*
X73111601Y-84085200D01*
G75*
G02*
X73361600Y-84335199I0J-249999D01*
G01*
G37*
G36*
G01*
X75361600Y-84335199D02*
X75361600Y-85235201D01*
G75*
G02*
X75111601Y-85485200I-249999J0D01*
G01*
X74411599Y-85485200D01*
G75*
G02*
X74161600Y-85235201I0J249999D01*
G01*
X74161600Y-84335199D01*
G75*
G02*
X74411599Y-84085200I249999J0D01*
G01*
X75111601Y-84085200D01*
G75*
G02*
X75361600Y-84335199I0J-249999D01*
G01*
G37*
%TD*%
%TO.C,R24*%
G36*
G01*
X81717301Y-77412900D02*
X80817299Y-77412900D01*
G75*
G02*
X80567300Y-77162901I0J249999D01*
G01*
X80567300Y-76462899D01*
G75*
G02*
X80817299Y-76212900I249999J0D01*
G01*
X81717301Y-76212900D01*
G75*
G02*
X81967300Y-76462899I0J-249999D01*
G01*
X81967300Y-77162901D01*
G75*
G02*
X81717301Y-77412900I-249999J0D01*
G01*
G37*
G36*
G01*
X81717301Y-79412900D02*
X80817299Y-79412900D01*
G75*
G02*
X80567300Y-79162901I0J249999D01*
G01*
X80567300Y-78462899D01*
G75*
G02*
X80817299Y-78212900I249999J0D01*
G01*
X81717301Y-78212900D01*
G75*
G02*
X81967300Y-78462899I0J-249999D01*
G01*
X81967300Y-79162901D01*
G75*
G02*
X81717301Y-79412900I-249999J0D01*
G01*
G37*
%TD*%
%TO.C,R25*%
G36*
G01*
X87497499Y-78212900D02*
X88397501Y-78212900D01*
G75*
G02*
X88647500Y-78462899I0J-249999D01*
G01*
X88647500Y-79162901D01*
G75*
G02*
X88397501Y-79412900I-249999J0D01*
G01*
X87497499Y-79412900D01*
G75*
G02*
X87247500Y-79162901I0J249999D01*
G01*
X87247500Y-78462899D01*
G75*
G02*
X87497499Y-78212900I249999J0D01*
G01*
G37*
G36*
G01*
X87497499Y-76212900D02*
X88397501Y-76212900D01*
G75*
G02*
X88647500Y-76462899I0J-249999D01*
G01*
X88647500Y-77162901D01*
G75*
G02*
X88397501Y-77412900I-249999J0D01*
G01*
X87497499Y-77412900D01*
G75*
G02*
X87247500Y-77162901I0J249999D01*
G01*
X87247500Y-76462899D01*
G75*
G02*
X87497499Y-76212900I249999J0D01*
G01*
G37*
%TD*%
%TO.C,R2*%
G36*
G01*
X96501000Y-77019999D02*
X96501000Y-77920001D01*
G75*
G02*
X96251001Y-78170000I-249999J0D01*
G01*
X95550999Y-78170000D01*
G75*
G02*
X95301000Y-77920001I0J249999D01*
G01*
X95301000Y-77019999D01*
G75*
G02*
X95550999Y-76770000I249999J0D01*
G01*
X96251001Y-76770000D01*
G75*
G02*
X96501000Y-77019999I0J-249999D01*
G01*
G37*
G36*
G01*
X98501000Y-77019999D02*
X98501000Y-77920001D01*
G75*
G02*
X98251001Y-78170000I-249999J0D01*
G01*
X97550999Y-78170000D01*
G75*
G02*
X97301000Y-77920001I0J249999D01*
G01*
X97301000Y-77019999D01*
G75*
G02*
X97550999Y-76770000I249999J0D01*
G01*
X98251001Y-76770000D01*
G75*
G02*
X98501000Y-77019999I0J-249999D01*
G01*
G37*
%TD*%
%TO.C,R30*%
G36*
G01*
X77718499Y-76749100D02*
X78618501Y-76749100D01*
G75*
G02*
X78868500Y-76999099I0J-249999D01*
G01*
X78868500Y-77699101D01*
G75*
G02*
X78618501Y-77949100I-249999J0D01*
G01*
X77718499Y-77949100D01*
G75*
G02*
X77468500Y-77699101I0J249999D01*
G01*
X77468500Y-76999099D01*
G75*
G02*
X77718499Y-76749100I249999J0D01*
G01*
G37*
G36*
G01*
X77718499Y-74749100D02*
X78618501Y-74749100D01*
G75*
G02*
X78868500Y-74999099I0J-249999D01*
G01*
X78868500Y-75699101D01*
G75*
G02*
X78618501Y-75949100I-249999J0D01*
G01*
X77718499Y-75949100D01*
G75*
G02*
X77468500Y-75699101I0J249999D01*
G01*
X77468500Y-74999099D01*
G75*
G02*
X77718499Y-74749100I249999J0D01*
G01*
G37*
%TD*%
%TO.C,R18*%
G36*
G01*
X81565700Y-47973401D02*
X81565700Y-47073399D01*
G75*
G02*
X81815699Y-46823400I249999J0D01*
G01*
X82515701Y-46823400D01*
G75*
G02*
X82765700Y-47073399I0J-249999D01*
G01*
X82765700Y-47973401D01*
G75*
G02*
X82515701Y-48223400I-249999J0D01*
G01*
X81815699Y-48223400D01*
G75*
G02*
X81565700Y-47973401I0J249999D01*
G01*
G37*
G36*
G01*
X79565700Y-47973401D02*
X79565700Y-47073399D01*
G75*
G02*
X79815699Y-46823400I249999J0D01*
G01*
X80515701Y-46823400D01*
G75*
G02*
X80765700Y-47073399I0J-249999D01*
G01*
X80765700Y-47973401D01*
G75*
G02*
X80515701Y-48223400I-249999J0D01*
G01*
X79815699Y-48223400D01*
G75*
G02*
X79565700Y-47973401I0J249999D01*
G01*
G37*
%TD*%
%TO.C,R3*%
G36*
G01*
X85807500Y-84651001D02*
X85807500Y-83750999D01*
G75*
G02*
X86057499Y-83501000I249999J0D01*
G01*
X86757501Y-83501000D01*
G75*
G02*
X87007500Y-83750999I0J-249999D01*
G01*
X87007500Y-84651001D01*
G75*
G02*
X86757501Y-84901000I-249999J0D01*
G01*
X86057499Y-84901000D01*
G75*
G02*
X85807500Y-84651001I0J249999D01*
G01*
G37*
G36*
G01*
X83807500Y-84651001D02*
X83807500Y-83750999D01*
G75*
G02*
X84057499Y-83501000I249999J0D01*
G01*
X84757501Y-83501000D01*
G75*
G02*
X85007500Y-83750999I0J-249999D01*
G01*
X85007500Y-84651001D01*
G75*
G02*
X84757501Y-84901000I-249999J0D01*
G01*
X84057499Y-84901000D01*
G75*
G02*
X83807500Y-84651001I0J249999D01*
G01*
G37*
%TD*%
%TO.C,Q4*%
G36*
G01*
X82570700Y-79062900D02*
X82570700Y-78462900D01*
G75*
G02*
X82640700Y-78392900I70000J0D01*
G01*
X83940700Y-78392900D01*
G75*
G02*
X84010700Y-78462900I0J-70000D01*
G01*
X84010700Y-79062900D01*
G75*
G02*
X83940700Y-79132900I-70000J0D01*
G01*
X82640700Y-79132900D01*
G75*
G02*
X82570700Y-79062900I0J70000D01*
G01*
G37*
G36*
G01*
X82570700Y-77162900D02*
X82570700Y-76562900D01*
G75*
G02*
X82640700Y-76492900I70000J0D01*
G01*
X83940700Y-76492900D01*
G75*
G02*
X84010700Y-76562900I0J-70000D01*
G01*
X84010700Y-77162900D01*
G75*
G02*
X83940700Y-77232900I-70000J0D01*
G01*
X82640700Y-77232900D01*
G75*
G02*
X82570700Y-77162900I0J70000D01*
G01*
G37*
G36*
G01*
X84670700Y-78112900D02*
X84670700Y-77512900D01*
G75*
G02*
X84740700Y-77442900I70000J0D01*
G01*
X86040700Y-77442900D01*
G75*
G02*
X86110700Y-77512900I0J-70000D01*
G01*
X86110700Y-78112900D01*
G75*
G02*
X86040700Y-78182900I-70000J0D01*
G01*
X84740700Y-78182900D01*
G75*
G02*
X84670700Y-78112900I0J70000D01*
G01*
G37*
%TD*%
%TO.C,Q3*%
G36*
G01*
X83129500Y-49433800D02*
X83129500Y-48833800D01*
G75*
G02*
X83199500Y-48763800I70000J0D01*
G01*
X84499500Y-48763800D01*
G75*
G02*
X84569500Y-48833800I0J-70000D01*
G01*
X84569500Y-49433800D01*
G75*
G02*
X84499500Y-49503800I-70000J0D01*
G01*
X83199500Y-49503800D01*
G75*
G02*
X83129500Y-49433800I0J70000D01*
G01*
G37*
G36*
G01*
X83129500Y-47533800D02*
X83129500Y-46933800D01*
G75*
G02*
X83199500Y-46863800I70000J0D01*
G01*
X84499500Y-46863800D01*
G75*
G02*
X84569500Y-46933800I0J-70000D01*
G01*
X84569500Y-47533800D01*
G75*
G02*
X84499500Y-47603800I-70000J0D01*
G01*
X83199500Y-47603800D01*
G75*
G02*
X83129500Y-47533800I0J70000D01*
G01*
G37*
G36*
G01*
X85229500Y-48483800D02*
X85229500Y-47883800D01*
G75*
G02*
X85299500Y-47813800I70000J0D01*
G01*
X86599500Y-47813800D01*
G75*
G02*
X86669500Y-47883800I0J-70000D01*
G01*
X86669500Y-48483800D01*
G75*
G02*
X86599500Y-48553800I-70000J0D01*
G01*
X85299500Y-48553800D01*
G75*
G02*
X85229500Y-48483800I0J70000D01*
G01*
G37*
%TD*%
D27*
%TO.C,L3*%
X106824500Y-77851000D03*
X104249500Y-77851000D03*
%TD*%
D26*
%TO.C,L2*%
X77978000Y-85199500D03*
X77978000Y-87774500D03*
%TD*%
D16*
%TO.C,J2*%
X69215000Y-91160600D03*
X76835000Y-91160600D03*
D17*
X70485000Y-87350600D03*
X73025000Y-87350600D03*
X75565000Y-87350600D03*
%TD*%
%TO.C,C4*%
G36*
G01*
X93868003Y-80253000D02*
X92567997Y-80253000D01*
G75*
G02*
X92318000Y-80003003I0J249997D01*
G01*
X92318000Y-79177997D01*
G75*
G02*
X92567997Y-78928000I249997J0D01*
G01*
X93868003Y-78928000D01*
G75*
G02*
X94118000Y-79177997I0J-249997D01*
G01*
X94118000Y-80003003D01*
G75*
G02*
X93868003Y-80253000I-249997J0D01*
G01*
G37*
G36*
G01*
X93868003Y-83378000D02*
X92567997Y-83378000D01*
G75*
G02*
X92318000Y-83128003I0J249997D01*
G01*
X92318000Y-82302997D01*
G75*
G02*
X92567997Y-82053000I249997J0D01*
G01*
X93868003Y-82053000D01*
G75*
G02*
X94118000Y-82302997I0J-249997D01*
G01*
X94118000Y-83128003D01*
G75*
G02*
X93868003Y-83378000I-249997J0D01*
G01*
G37*
%TD*%
%TO.C,C5*%
G36*
G01*
X72374997Y-91959000D02*
X73675003Y-91959000D01*
G75*
G02*
X73925000Y-92208997I0J-249997D01*
G01*
X73925000Y-93034003D01*
G75*
G02*
X73675003Y-93284000I-249997J0D01*
G01*
X72374997Y-93284000D01*
G75*
G02*
X72125000Y-93034003I0J249997D01*
G01*
X72125000Y-92208997D01*
G75*
G02*
X72374997Y-91959000I249997J0D01*
G01*
G37*
G36*
G01*
X72374997Y-88834000D02*
X73675003Y-88834000D01*
G75*
G02*
X73925000Y-89083997I0J-249997D01*
G01*
X73925000Y-89909003D01*
G75*
G02*
X73675003Y-90159000I-249997J0D01*
G01*
X72374997Y-90159000D01*
G75*
G02*
X72125000Y-89909003I0J249997D01*
G01*
X72125000Y-89083997D01*
G75*
G02*
X72374997Y-88834000I249997J0D01*
G01*
G37*
%TD*%
%TO.C,C17*%
G36*
G01*
X78996303Y-79834300D02*
X77696297Y-79834300D01*
G75*
G02*
X77446300Y-79584303I0J249997D01*
G01*
X77446300Y-78759297D01*
G75*
G02*
X77696297Y-78509300I249997J0D01*
G01*
X78996303Y-78509300D01*
G75*
G02*
X79246300Y-78759297I0J-249997D01*
G01*
X79246300Y-79584303D01*
G75*
G02*
X78996303Y-79834300I-249997J0D01*
G01*
G37*
G36*
G01*
X78996303Y-82959300D02*
X77696297Y-82959300D01*
G75*
G02*
X77446300Y-82709303I0J249997D01*
G01*
X77446300Y-81884297D01*
G75*
G02*
X77696297Y-81634300I249997J0D01*
G01*
X78996303Y-81634300D01*
G75*
G02*
X79246300Y-81884297I0J-249997D01*
G01*
X79246300Y-82709303D01*
G75*
G02*
X78996303Y-82959300I-249997J0D01*
G01*
G37*
%TD*%
%TO.C,C20*%
G36*
G01*
X112214897Y-66520900D02*
X113514903Y-66520900D01*
G75*
G02*
X113764900Y-66770897I0J-249997D01*
G01*
X113764900Y-67595903D01*
G75*
G02*
X113514903Y-67845900I-249997J0D01*
G01*
X112214897Y-67845900D01*
G75*
G02*
X111964900Y-67595903I0J249997D01*
G01*
X111964900Y-66770897D01*
G75*
G02*
X112214897Y-66520900I249997J0D01*
G01*
G37*
G36*
G01*
X112214897Y-63395900D02*
X113514903Y-63395900D01*
G75*
G02*
X113764900Y-63645897I0J-249997D01*
G01*
X113764900Y-64470903D01*
G75*
G02*
X113514903Y-64720900I-249997J0D01*
G01*
X112214897Y-64720900D01*
G75*
G02*
X111964900Y-64470903I0J249997D01*
G01*
X111964900Y-63645897D01*
G75*
G02*
X112214897Y-63395900I249997J0D01*
G01*
G37*
%TD*%
%TO.C,C2*%
G36*
G01*
X82942000Y-88534003D02*
X82942000Y-87233997D01*
G75*
G02*
X83191997Y-86984000I249997J0D01*
G01*
X84017003Y-86984000D01*
G75*
G02*
X84267000Y-87233997I0J-249997D01*
G01*
X84267000Y-88534003D01*
G75*
G02*
X84017003Y-88784000I-249997J0D01*
G01*
X83191997Y-88784000D01*
G75*
G02*
X82942000Y-88534003I0J249997D01*
G01*
G37*
G36*
G01*
X79817000Y-88534003D02*
X79817000Y-87233997D01*
G75*
G02*
X80066997Y-86984000I249997J0D01*
G01*
X80892003Y-86984000D01*
G75*
G02*
X81142000Y-87233997I0J-249997D01*
G01*
X81142000Y-88534003D01*
G75*
G02*
X80892003Y-88784000I-249997J0D01*
G01*
X80066997Y-88784000D01*
G75*
G02*
X79817000Y-88534003I0J249997D01*
G01*
G37*
%TD*%
%TO.C,C24*%
G36*
G01*
X112252997Y-73925000D02*
X113553003Y-73925000D01*
G75*
G02*
X113803000Y-74174997I0J-249997D01*
G01*
X113803000Y-75000003D01*
G75*
G02*
X113553003Y-75250000I-249997J0D01*
G01*
X112252997Y-75250000D01*
G75*
G02*
X112003000Y-75000003I0J249997D01*
G01*
X112003000Y-74174997D01*
G75*
G02*
X112252997Y-73925000I249997J0D01*
G01*
G37*
G36*
G01*
X112252997Y-70800000D02*
X113553003Y-70800000D01*
G75*
G02*
X113803000Y-71049997I0J-249997D01*
G01*
X113803000Y-71875003D01*
G75*
G02*
X113553003Y-72125000I-249997J0D01*
G01*
X112252997Y-72125000D01*
G75*
G02*
X112003000Y-71875003I0J249997D01*
G01*
X112003000Y-71049997D01*
G75*
G02*
X112252997Y-70800000I249997J0D01*
G01*
G37*
%TD*%
%TO.C,C22*%
G36*
G01*
X110402800Y-60132197D02*
X110402800Y-61432203D01*
G75*
G02*
X110152803Y-61682200I-249997J0D01*
G01*
X109327797Y-61682200D01*
G75*
G02*
X109077800Y-61432203I0J249997D01*
G01*
X109077800Y-60132197D01*
G75*
G02*
X109327797Y-59882200I249997J0D01*
G01*
X110152803Y-59882200D01*
G75*
G02*
X110402800Y-60132197I0J-249997D01*
G01*
G37*
G36*
G01*
X113527800Y-60132197D02*
X113527800Y-61432203D01*
G75*
G02*
X113277803Y-61682200I-249997J0D01*
G01*
X112452797Y-61682200D01*
G75*
G02*
X112202800Y-61432203I0J249997D01*
G01*
X112202800Y-60132197D01*
G75*
G02*
X112452797Y-59882200I249997J0D01*
G01*
X113277803Y-59882200D01*
G75*
G02*
X113527800Y-60132197I0J-249997D01*
G01*
G37*
%TD*%
M02*
