M48
; DRILL file {KiCad (5.1.7)-1} date 08/01/21 21:01:43
; FORMAT={-:-/ absolute / inch / decimal}
; #@! TF.CreationDate,2021-08-01T21:01:43-07:00
; #@! TF.GenerationSoftware,Kicad,Pcbnew,(5.1.7)-1
FMAT,2
INCH
T1C0.0150
T2C0.0200
T3C0.0315
T4C0.0320
T5C0.0394
T6C0.0512
T7C0.1063
T8C0.1299
%
G90
G05
T1
X2.383Y-3.04
X2.383Y-3.14
X2.383Y-3.23
X2.383Y-3.33
X2.47Y-3.353
X2.53Y-2.663
X2.56Y-2.603
X2.567Y-3.092
X2.57Y-3.353
X2.572Y-2.727
X2.62Y-2.553
X2.625Y-2.737
X2.63Y-2.673
X2.637Y-2.839
X2.67Y-3.353
X2.675Y-3.178
X2.6772Y-2.874
X2.68Y-2.073
X2.68Y-2.143
X2.68Y-2.213
X2.68Y-2.293
X2.68Y-2.363
X2.68Y-2.433
X2.68Y-2.503
X2.68Y-2.623
X2.7Y-2.03
X2.724Y-2.732
X2.76Y-2.073
X2.76Y-2.143
X2.76Y-2.213
X2.76Y-2.293
X2.76Y-2.363
X2.76Y-2.443
X2.768Y-3.334
X2.77Y-2.543
X2.77Y-2.723
X2.78Y-2.643
X2.78Y-2.846
X2.8215Y-3.1485
X2.823Y-1.895
X2.826Y-3.292
X2.83Y-2.443
X2.83Y-2.513
X2.839Y-2.596
X2.863Y-1.857
X2.882Y-2.887
X2.905Y-1.822
X2.92Y-2.839
X2.93Y-2.443
X2.93Y-2.513
X2.93Y-2.592
X2.958Y-1.889
X2.979Y-2.41
X3.021Y-3.289
X3.0215Y-3.0415
X3.022Y-3.083
X3.025Y-3.146
X3.03Y-2.443
X3.03Y-2.513
X3.03Y-2.592
X3.065Y-3.169
X3.09Y-2.443
X3.09Y-2.513
X3.09Y-2.592
X3.098Y-2.863
X3.104Y-1.897
X3.11Y-3.17
X3.125Y-3.292
X3.134Y-2.989
X3.19Y-2.443
X3.19Y-2.513
X3.19Y-2.592
X3.205Y-3.38
X3.22Y-2.783
X3.23Y-3.455
X3.27Y-2.853
X3.278Y-2.133
X3.28Y-3.155
X3.29Y-2.364
X3.29Y-2.443
X3.29Y-2.513
X3.29Y-2.592
X3.317Y-2.252
X3.317Y-3.206
X3.32Y-2.783
X3.3475Y-2.032
X3.3525Y-1.857
X3.37Y-2.853
X3.39Y-2.364
X3.39Y-2.443
X3.39Y-2.513
X3.39Y-2.592
X3.4Y-3.206
X3.415Y-3.063
X3.417Y-2.252
X3.42Y-2.783
X3.47Y-2.853
X3.48Y-3.237
X3.49Y-2.364
X3.49Y-2.443
X3.49Y-2.513
X3.49Y-2.592
X3.513Y-3.064
X3.517Y-2.252
X3.569Y-3.237
X3.57Y-2.03
X3.59Y-2.364
X3.59Y-2.443
X3.59Y-2.513
X3.59Y-2.592
X3.67Y-2.443
X3.67Y-2.513
X3.67Y-2.592
X3.69Y-2.783
X3.715Y-3.082
X3.728Y-3.306
X3.77Y-2.513
X3.77Y-2.592
X3.78Y-2.353
X3.79Y-2.783
X3.83Y-2.413
X3.84Y-2.293
X3.861Y-2.592
X3.89Y-2.353
X3.89Y-2.473
X3.9Y-2.233
X3.9Y-3.107
X3.909Y-3.067
X3.95Y-2.293
X3.95Y-2.423
X3.96Y-2.173
X3.99Y-2.783
X3.993Y-3.265
X3.998Y-2.478
X4.001Y-2.917
X4.01Y-2.233
X4.01Y-2.363
X4.042Y-3.062
X4.05Y-2.193
X4.068Y-2.408
X4.07Y-2.303
X4.09Y-2.783
X4.11Y-2.25
X4.115Y-2.599
X4.128Y-2.348
X4.155Y-2.599
X4.165Y-3.22
X4.178Y-2.308
X4.19Y-2.783
X4.195Y-2.599
X4.24Y-3.135
X4.24Y-3.21
X4.248Y-2.308
X4.27Y-3.04
X4.308Y-2.308
X4.347Y-2.917
X4.358Y-2.268
X4.378Y-1.808
X4.405Y-2.222
X4.427Y-3.037
X4.428Y-1.978
X4.433Y-1.826
X4.448Y-2.174
X4.4575Y-3.135
X4.478Y-2.078
X4.558Y-1.828
X4.565Y-3.22
X4.628Y-1.628
X4.628Y-2.018
X4.6405Y-2.815
X4.6765Y-2.815
X4.6775Y-2.85
X4.6775Y-2.885
X4.688Y-1.858
X4.692Y-1.809
X4.708Y-1.688
X4.7145Y-2.815
X4.7205Y-2.6515
X4.7205Y-2.6895
X4.7215Y-2.181
X4.7215Y-2.217
X4.7215Y-2.353
X4.7215Y-2.391
X4.738Y-1.838
X4.748Y-1.778
X4.7565Y-2.18
X4.7595Y-2.6895
X4.7725Y-2.819
T2
X2.9625Y-1.965
X3.7835Y-1.898
X4.5365Y-2.081
X4.5985Y-2.08
X4.6325Y-2.3555
X4.6465Y-2.6695
X4.6615Y-2.08
X4.7245Y-2.08
X4.7335Y-2.4755
X4.7855Y-2.401
X4.8115Y-2.0885
T3
X2.775Y-3.439
X2.875Y-3.439
X2.975Y-3.439
X3.785Y-3.439
X3.885Y-3.439
X3.985Y-3.439
T4
X4.6744Y-3.1721
X4.6744Y-3.2721
X4.6744Y-3.3721
X4.7744Y-3.1721
X4.7744Y-3.2721
X4.7744Y-3.3721
T5
X3.611Y-3.588
X3.151Y-3.588
X2.8275Y-2.0875
X2.8275Y-2.6875
X2.9275Y-2.0875
X2.9275Y-2.6875
X3.0275Y-2.0875
X3.0275Y-2.6875
X3.1275Y-2.0875
X3.1275Y-2.6875
X3.2275Y-2.0875
X3.2275Y-2.6875
X3.3275Y-2.0875
X3.3275Y-2.6875
X3.4275Y-2.0875
X3.4275Y-2.6875
X3.5275Y-2.0875
X3.5275Y-2.6875
X3.6275Y-2.0875
X3.6275Y-2.6875
X3.7275Y-2.0875
X3.7275Y-2.6875
X3.8275Y-2.0875
X3.8275Y-2.6875
X3.9275Y-2.0875
X3.9275Y-2.6875
X4.0275Y-2.0875
X4.0275Y-2.6875
X4.1275Y-2.0875
X4.1275Y-2.6875
X4.2275Y-2.0875
X4.2275Y-2.6875
X2.601Y-3.588
X2.6295Y-1.6576
X2.6295Y-1.7576
X2.7295Y-1.6576
X2.7295Y-1.7576
X2.8295Y-1.6576
X2.8295Y-1.7576
X2.9295Y-1.6576
X2.9295Y-1.7576
X3.0295Y-1.6576
X3.0295Y-1.7576
X3.1295Y-1.6576
X3.1295Y-1.7576
X3.2295Y-1.6576
X3.2295Y-1.7576
X3.3295Y-1.6576
X3.3295Y-1.7576
X3.4295Y-1.6576
X3.4295Y-1.7576
X3.5295Y-1.6576
X3.5295Y-1.7576
X3.6295Y-1.6576
X3.6295Y-1.7576
X3.7295Y-1.6576
X3.7295Y-1.7576
X3.8295Y-1.6576
X3.8295Y-1.7576
X3.9295Y-1.6576
X3.9295Y-1.7576
X4.0295Y-1.6576
X4.0295Y-1.7576
X4.1295Y-1.6576
X4.1295Y-1.7576
X4.2295Y-1.6576
X4.2295Y-1.7576
X4.3295Y-1.6576
X4.3295Y-1.7576
X4.4295Y-1.6576
X4.4295Y-1.7576
X4.5295Y-1.6576
X4.5295Y-1.7576
X4.161Y-3.588
T7
X2.438Y-3.637
X4.722Y-3.637
T8
X2.725Y-3.589
X3.025Y-3.589
X3.735Y-3.589
X4.035Y-3.589
T5
G00X4.39Y-3.4083
M15
G01X4.39Y-3.4674
M16
G05
G00X3.38Y-3.4083
M15
G01X3.38Y-3.4674
M16
G05
T6
G00X4.3664Y-3.615
M15
G01X4.4136Y-3.615
M16
G05
G00X3.3564Y-3.615
M15
G01X3.4036Y-3.615
M16
G05
T0
M30
